M48
; DRILL file {KiCad 9.0.0} date 2025-03-25T18:59:23+0100
; FORMAT={-:-/ absolute / metric / decimal}
; #@! TF.CreationDate,2025-03-25T18:59:23+01:00
; #@! TF.GenerationSoftware,Kicad,Pcbnew,9.0.0
; #@! TF.FileFunction,Plated,1,2,PTH
FMAT,2
METRIC
; #@! TA.AperFunction,Plated,PTH,ViaDrill
T1C0.300
; #@! TA.AperFunction,Plated,PTH,ComponentDrill
T2C0.500
; #@! TA.AperFunction,Plated,PTH,ComponentDrill
T3C1.100
; #@! TA.AperFunction,Plated,PTH,ComponentDrill
T4C1.300
; #@! TA.AperFunction,Plated,PTH,ComponentDrill
T5C1.499
; #@! TA.AperFunction,Plated,PTH,ComponentDrill
T6C3.200
; #@! TA.AperFunction,Plated,PTH,ComponentDrill
T7C5.000
%
G90
G05
T1
X115.0Y-80.0
X115.0Y-85.0
X115.0Y-120.0
X120.0Y-80.0
X120.0Y-85.0
X120.0Y-100.0
X120.0Y-105.0
X120.0Y-110.0
X120.0Y-115.0
X120.0Y-120.0
X120.0Y-125.0
X125.0Y-80.0
X125.0Y-85.0
X125.0Y-95.0
X125.0Y-100.0
X125.0Y-105.0
X125.0Y-110.0
X125.0Y-115.0
X125.0Y-120.0
X125.0Y-125.0
X130.0Y-95.0
X130.0Y-100.0
X130.0Y-105.0
X130.0Y-110.0
X130.0Y-115.0
X130.0Y-120.0
X130.0Y-125.0
X130.0Y-127.5
X131.1Y-83.6
X131.1Y-85.7
X133.05Y-71.65
X135.0Y-127.5
X137.1Y-90.05
X137.1Y-101.1
X137.1Y-111.95
X137.1Y-123.25
X138.6Y-123.1
X138.7Y-90.0
X138.7Y-101.15
X138.7Y-111.9
X140.0Y-127.5
X140.2Y-102.25
X140.3Y-91.4
X140.3Y-124.4
X140.4Y-113.25
X141.8Y-102.3
X141.85Y-71.65
X141.9Y-91.35
X141.9Y-124.4
X142.0Y-113.25
X142.5Y-77.5
X142.5Y-80.0
X145.0Y-72.5
X145.0Y-75.0
X145.0Y-127.5
X147.5Y-72.5
X147.5Y-75.0
X147.5Y-77.5
X147.5Y-80.0
X147.5Y-102.5
X147.5Y-110.0
X147.5Y-112.5
X147.5Y-115.0
X147.5Y-125.0
X150.0Y-102.5
X150.0Y-112.5
X150.0Y-115.0
X150.0Y-125.0
X151.85Y-116.75
X151.85Y-118.45
X151.862Y-94.637
X151.862Y-96.362
X152.0Y-83.737
X152.0Y-105.637
X152.05Y-107.35
X152.062Y-85.462
X152.5Y-80.0
X152.5Y-102.5
X152.5Y-112.5
X152.5Y-115.0
X155.0Y-77.5
X155.0Y-80.0
X155.0Y-82.5
X155.0Y-105.0
X155.0Y-115.0
X157.5Y-80.0
X157.5Y-105.0
X157.5Y-115.0
X160.0Y-102.5
X160.0Y-105.0
X160.0Y-112.5
X160.0Y-115.0
X160.0Y-125.0
X161.4Y-104.2
X161.55Y-115.188
X161.6Y-81.987
X161.662Y-93.087
X162.3Y-85.6
X162.3Y-86.3
X162.3Y-87.0
X162.3Y-87.7
X162.3Y-96.6
X162.3Y-97.3
X162.3Y-98.0
X162.3Y-98.7
X162.3Y-107.7
X162.3Y-108.3
X162.3Y-109.1
X162.3Y-109.8
X162.3Y-118.1
X162.3Y-118.8
X162.3Y-119.6
X162.5Y-102.5
X162.5Y-112.5
X165.0Y-90.0
X165.0Y-102.5
X165.0Y-125.0
X165.8Y-81.4
X165.8Y-119.7
X165.85Y-88.05
X165.875Y-109.075
X165.975Y-97.6
X166.5Y-115.5
X166.7Y-93.4
X166.9Y-104.5
X167.5Y-90.0
X167.5Y-92.5
X167.5Y-102.5
X170.0Y-120.0
X170.0Y-125.0
X175.0Y-80.0
X175.0Y-85.0
X175.0Y-90.0
X175.0Y-97.5
X175.0Y-102.5
X175.0Y-110.0
X175.0Y-115.0
X175.0Y-120.0
X175.0Y-125.0
X180.0Y-75.0
X180.0Y-80.0
X180.0Y-85.0
X180.0Y-90.0
X180.0Y-97.5
X180.0Y-102.5
X180.0Y-110.0
X180.0Y-115.0
X180.0Y-120.0
X180.0Y-125.0
X185.0Y-80.0
X185.0Y-97.5
X185.0Y-102.5
X185.0Y-107.5
X185.0Y-120.0
T2
X135.2Y-98.277
X135.2Y-109.3
X135.2Y-120.5
X135.3Y-87.3
X143.9Y-123.6
X144.0Y-90.8
X144.0Y-101.3
X144.1Y-112.4
X153.9Y-91.7
X153.9Y-102.7
X153.9Y-124.7
X154.1Y-113.6
X156.2Y-84.4
X156.2Y-117.4
X156.3Y-95.3
X156.3Y-106.4
X167.9Y-85.4
X168.0Y-107.5
X168.1Y-118.5
X168.2Y-96.4
T3
X136.16Y-74.155
X138.7Y-74.155
X141.24Y-74.155
T4
X114.4Y-87.2
X114.4Y-92.2
X114.4Y-97.2
X114.4Y-104.2
X114.4Y-109.2
X114.4Y-114.2
X122.4Y-74.3
X127.4Y-74.3
X150.0Y-74.3
X155.0Y-74.3
X160.0Y-74.3
X165.0Y-74.3
X170.0Y-74.3
X175.0Y-74.3
X185.7Y-94.9
X185.7Y-99.9
X185.7Y-104.9
X185.7Y-109.9
X185.7Y-114.9
T5
X133.6Y-91.7
X133.6Y-102.7
X133.6Y-113.6
X133.6Y-124.7
X156.2Y-91.7
X156.2Y-102.7
X156.2Y-113.6
X156.2Y-124.7
T6
X115.0Y-75.0
X115.0Y-125.0
X185.0Y-75.0
X185.0Y-125.0
T7
X185.9Y-86.1
M30
