%TF.GenerationSoftware,KiCad,Pcbnew,9.0.0*%
%TF.CreationDate,2025-03-25T18:59:23+01:00*%
%TF.ProjectId,HeatingBoard,48656174-696e-4674-926f-6172642e6b69,V1*%
%TF.SameCoordinates,Original*%
%TF.FileFunction,Drillmap*%
%TF.FilePolarity,Positive*%
%FSLAX45Y45*%
G04 Gerber Fmt 4.5, Leading zero omitted, Abs format (unit mm)*
G04 Created by KiCad (PCBNEW 9.0.0) date 2025-03-25 18:59:23*
%MOMM*%
%LPD*%
G01*
G04 APERTURE LIST*
%ADD10C,0.050000*%
%ADD11C,0.200000*%
G04 APERTURE END LIST*
D10*
X18500000Y-7000000D02*
G75*
G02*
X19000000Y-7500000I33510J-466490D01*
G01*
X11500000Y-7000000D02*
X18500000Y-7000000D01*
X11500000Y-13000000D02*
X18500000Y-13000000D01*
X11500000Y-13000000D02*
G75*
G02*
X11000000Y-12500000I0J500000D01*
G01*
X19000000Y-12500000D02*
G75*
G02*
X18500000Y-13000000I-500000J0D01*
G01*
X11000000Y-12500000D02*
X11000000Y-7500000D01*
X19000000Y-7500000D02*
X19000000Y-12500000D01*
X11000000Y-7500000D02*
G75*
G02*
X11500000Y-7000000I500000J0D01*
G01*
D11*
X11258277Y-13313984D02*
X11258277Y-13113984D01*
X11258277Y-13113984D02*
X11305896Y-13113984D01*
X11305896Y-13113984D02*
X11334467Y-13123508D01*
X11334467Y-13123508D02*
X11353515Y-13142555D01*
X11353515Y-13142555D02*
X11363039Y-13161603D01*
X11363039Y-13161603D02*
X11372562Y-13199698D01*
X11372562Y-13199698D02*
X11372562Y-13228269D01*
X11372562Y-13228269D02*
X11363039Y-13266365D01*
X11363039Y-13266365D02*
X11353515Y-13285412D01*
X11353515Y-13285412D02*
X11334467Y-13304460D01*
X11334467Y-13304460D02*
X11305896Y-13313984D01*
X11305896Y-13313984D02*
X11258277Y-13313984D01*
X11458277Y-13313984D02*
X11458277Y-13180650D01*
X11458277Y-13218746D02*
X11467801Y-13199698D01*
X11467801Y-13199698D02*
X11477324Y-13190174D01*
X11477324Y-13190174D02*
X11496372Y-13180650D01*
X11496372Y-13180650D02*
X11515420Y-13180650D01*
X11582086Y-13313984D02*
X11582086Y-13180650D01*
X11582086Y-13113984D02*
X11572562Y-13123508D01*
X11572562Y-13123508D02*
X11582086Y-13133031D01*
X11582086Y-13133031D02*
X11591610Y-13123508D01*
X11591610Y-13123508D02*
X11582086Y-13113984D01*
X11582086Y-13113984D02*
X11582086Y-13133031D01*
X11705896Y-13313984D02*
X11686848Y-13304460D01*
X11686848Y-13304460D02*
X11677324Y-13285412D01*
X11677324Y-13285412D02*
X11677324Y-13113984D01*
X11810658Y-13313984D02*
X11791610Y-13304460D01*
X11791610Y-13304460D02*
X11782086Y-13285412D01*
X11782086Y-13285412D02*
X11782086Y-13113984D01*
X12039229Y-13313984D02*
X12039229Y-13113984D01*
X12039229Y-13113984D02*
X12105896Y-13256841D01*
X12105896Y-13256841D02*
X12172562Y-13113984D01*
X12172562Y-13113984D02*
X12172562Y-13313984D01*
X12353515Y-13313984D02*
X12353515Y-13209222D01*
X12353515Y-13209222D02*
X12343991Y-13190174D01*
X12343991Y-13190174D02*
X12324943Y-13180650D01*
X12324943Y-13180650D02*
X12286848Y-13180650D01*
X12286848Y-13180650D02*
X12267801Y-13190174D01*
X12353515Y-13304460D02*
X12334467Y-13313984D01*
X12334467Y-13313984D02*
X12286848Y-13313984D01*
X12286848Y-13313984D02*
X12267801Y-13304460D01*
X12267801Y-13304460D02*
X12258277Y-13285412D01*
X12258277Y-13285412D02*
X12258277Y-13266365D01*
X12258277Y-13266365D02*
X12267801Y-13247317D01*
X12267801Y-13247317D02*
X12286848Y-13237793D01*
X12286848Y-13237793D02*
X12334467Y-13237793D01*
X12334467Y-13237793D02*
X12353515Y-13228269D01*
X12448753Y-13180650D02*
X12448753Y-13380650D01*
X12448753Y-13190174D02*
X12467801Y-13180650D01*
X12467801Y-13180650D02*
X12505896Y-13180650D01*
X12505896Y-13180650D02*
X12524943Y-13190174D01*
X12524943Y-13190174D02*
X12534467Y-13199698D01*
X12534467Y-13199698D02*
X12543991Y-13218746D01*
X12543991Y-13218746D02*
X12543991Y-13275888D01*
X12543991Y-13275888D02*
X12534467Y-13294936D01*
X12534467Y-13294936D02*
X12524943Y-13304460D01*
X12524943Y-13304460D02*
X12505896Y-13313984D01*
X12505896Y-13313984D02*
X12467801Y-13313984D01*
X12467801Y-13313984D02*
X12448753Y-13304460D01*
X12629705Y-13294936D02*
X12639229Y-13304460D01*
X12639229Y-13304460D02*
X12629705Y-13313984D01*
X12629705Y-13313984D02*
X12620182Y-13304460D01*
X12620182Y-13304460D02*
X12629705Y-13294936D01*
X12629705Y-13294936D02*
X12629705Y-13313984D01*
X12629705Y-13190174D02*
X12639229Y-13199698D01*
X12639229Y-13199698D02*
X12629705Y-13209222D01*
X12629705Y-13209222D02*
X12620182Y-13199698D01*
X12620182Y-13199698D02*
X12629705Y-13190174D01*
X12629705Y-13190174D02*
X12629705Y-13209222D01*
M02*
