%TF.GenerationSoftware,KiCad,Pcbnew,9.0.0*%
%TF.CreationDate,2025-03-25T18:58:08+01:00*%
%TF.ProjectId,HeatingBoard,48656174-696e-4674-926f-6172642e6b69,V1*%
%TF.SameCoordinates,Original*%
%TF.FileFunction,Paste,Bot*%
%TF.FilePolarity,Positive*%
%FSLAX46Y46*%
G04 Gerber Fmt 4.6, Leading zero omitted, Abs format (unit mm)*
G04 Created by KiCad (PCBNEW 9.0.0) date 2025-03-25 18:58:08*
%MOMM*%
%LPD*%
G01*
G04 APERTURE LIST*
G04 Aperture macros list*
%AMRoundRect*
0 Rectangle with rounded corners*
0 $1 Rounding radius*
0 $2 $3 $4 $5 $6 $7 $8 $9 X,Y pos of 4 corners*
0 Add a 4 corners polygon primitive as box body*
4,1,4,$2,$3,$4,$5,$6,$7,$8,$9,$2,$3,0*
0 Add four circle primitives for the rounded corners*
1,1,$1+$1,$2,$3*
1,1,$1+$1,$4,$5*
1,1,$1+$1,$6,$7*
1,1,$1+$1,$8,$9*
0 Add four rect primitives between the rounded corners*
20,1,$1+$1,$2,$3,$4,$5,0*
20,1,$1+$1,$4,$5,$6,$7,0*
20,1,$1+$1,$6,$7,$8,$9,0*
20,1,$1+$1,$8,$9,$2,$3,0*%
G04 Aperture macros list end*
%ADD10RoundRect,0.150000X0.587500X0.150000X-0.587500X0.150000X-0.587500X-0.150000X0.587500X-0.150000X0*%
%ADD11RoundRect,0.150000X0.150000X-0.587500X0.150000X0.587500X-0.150000X0.587500X-0.150000X-0.587500X0*%
%ADD12RoundRect,0.237500X0.250000X0.237500X-0.250000X0.237500X-0.250000X-0.237500X0.250000X-0.237500X0*%
%ADD13RoundRect,0.237500X0.237500X-0.250000X0.237500X0.250000X-0.237500X0.250000X-0.237500X-0.250000X0*%
%ADD14RoundRect,0.237500X-0.237500X0.250000X-0.237500X-0.250000X0.237500X-0.250000X0.237500X0.250000X0*%
%ADD15RoundRect,0.237500X-0.300000X-0.237500X0.300000X-0.237500X0.300000X0.237500X-0.300000X0.237500X0*%
%ADD16RoundRect,0.150000X-0.825000X-0.150000X0.825000X-0.150000X0.825000X0.150000X-0.825000X0.150000X0*%
%ADD17RoundRect,0.237500X-0.250000X-0.237500X0.250000X-0.237500X0.250000X0.237500X-0.250000X0.237500X0*%
%ADD18RoundRect,0.237500X0.237500X-0.300000X0.237500X0.300000X-0.237500X0.300000X-0.237500X-0.300000X0*%
%ADD19RoundRect,0.250000X0.625000X-0.400000X0.625000X0.400000X-0.625000X0.400000X-0.625000X-0.400000X0*%
%ADD20RoundRect,0.237500X-0.237500X0.300000X-0.237500X-0.300000X0.237500X-0.300000X0.237500X0.300000X0*%
G04 APERTURE END LIST*
D10*
%TO.C,U12*%
X164012500Y-108450000D03*
X165887500Y-109400000D03*
X165887500Y-107500000D03*
%TD*%
D11*
%TO.C,U8*%
X159700000Y-106562500D03*
X158750000Y-108437500D03*
X160650000Y-108437500D03*
%TD*%
D10*
%TO.C,U10*%
X163962500Y-86350000D03*
X165837500Y-87300000D03*
X165837500Y-85400000D03*
%TD*%
D11*
%TO.C,U6*%
X159750000Y-84462500D03*
X158800000Y-86337500D03*
X160700000Y-86337500D03*
%TD*%
%TO.C,U9*%
X159600000Y-117662500D03*
X158650000Y-119537500D03*
X160550000Y-119537500D03*
%TD*%
D10*
%TO.C,U11*%
X164062500Y-97337500D03*
X165937500Y-98287500D03*
X165937500Y-96387500D03*
%TD*%
%TO.C,U13*%
X163862500Y-119500000D03*
X165737500Y-120450000D03*
X165737500Y-118550000D03*
%TD*%
D11*
%TO.C,U7*%
X160750000Y-97337500D03*
X158850000Y-97337500D03*
X159800000Y-95462500D03*
%TD*%
D12*
%TO.C,R7*%
X165812500Y-83800000D03*
X163987500Y-83800000D03*
%TD*%
%TO.C,R10*%
X154312500Y-87100000D03*
X152487500Y-87100000D03*
%TD*%
D13*
%TO.C,R27*%
X137100000Y-111112500D03*
X137100000Y-109287500D03*
%TD*%
D14*
%TO.C,R17*%
X138700000Y-98387500D03*
X138700000Y-100212500D03*
%TD*%
D12*
%TO.C,R43*%
X154287500Y-120195000D03*
X152462500Y-120195000D03*
%TD*%
%TO.C,R18*%
X165912500Y-94900000D03*
X164087500Y-94900000D03*
%TD*%
%TO.C,R40*%
X165712500Y-117000000D03*
X163887500Y-117000000D03*
%TD*%
D14*
%TO.C,R15*%
X141800000Y-99487500D03*
X141800000Y-101312500D03*
%TD*%
%TO.C,R2*%
X120000000Y-95387500D03*
X120000000Y-97212500D03*
%TD*%
D15*
%TO.C,C11*%
X163937500Y-115500000D03*
X165662500Y-115500000D03*
%TD*%
D13*
%TO.C,R25*%
X140400000Y-112412500D03*
X140400000Y-110587500D03*
%TD*%
D16*
%TO.C,U4*%
X144025000Y-121705000D03*
X144025000Y-120435000D03*
X144025000Y-119165000D03*
X144025000Y-117895000D03*
X148975000Y-117895000D03*
X148975000Y-119165000D03*
X148975000Y-120435000D03*
X148975000Y-121705000D03*
%TD*%
D17*
%TO.C,R20*%
X152487500Y-99700000D03*
X154312500Y-99700000D03*
%TD*%
D18*
%TO.C,C12*%
X150975000Y-121857500D03*
X150975000Y-120132500D03*
%TD*%
D17*
%TO.C,R46*%
X162087500Y-122000000D03*
X163912500Y-122000000D03*
%TD*%
D18*
%TO.C,C9*%
X151075000Y-110757500D03*
X151075000Y-109032500D03*
%TD*%
D17*
%TO.C,R24*%
X162287500Y-99800000D03*
X164112500Y-99800000D03*
%TD*%
D13*
%TO.C,R5*%
X137100000Y-89112500D03*
X137100000Y-87287500D03*
%TD*%
D15*
%TO.C,C2*%
X164037500Y-82300000D03*
X165762500Y-82300000D03*
%TD*%
D19*
%TO.C,R22*%
X156200000Y-100450000D03*
X156200000Y-97350000D03*
%TD*%
%TO.C,R44*%
X156175000Y-122545000D03*
X156175000Y-119445000D03*
%TD*%
D18*
%TO.C,C6*%
X151000000Y-99662500D03*
X151000000Y-97937500D03*
%TD*%
D15*
%TO.C,C8*%
X164037500Y-104400000D03*
X165762500Y-104400000D03*
%TD*%
D14*
%TO.C,R26*%
X142000000Y-110587500D03*
X142000000Y-112412500D03*
%TD*%
D20*
%TO.C,C4*%
X151000000Y-94637500D03*
X151000000Y-96362500D03*
%TD*%
D12*
%TO.C,R32*%
X154387500Y-108995000D03*
X152562500Y-108995000D03*
%TD*%
D13*
%TO.C,R41*%
X162400000Y-117012500D03*
X162400000Y-115187500D03*
%TD*%
D14*
%TO.C,R6*%
X138700000Y-87287500D03*
X138700000Y-89112500D03*
%TD*%
D20*
%TO.C,C10*%
X151000000Y-116737500D03*
X151000000Y-118462500D03*
%TD*%
D17*
%TO.C,R13*%
X162087500Y-88800000D03*
X163912500Y-88800000D03*
%TD*%
%TO.C,R31*%
X152562500Y-110795000D03*
X154387500Y-110795000D03*
%TD*%
D12*
%TO.C,R29*%
X165812500Y-106000000D03*
X163987500Y-106000000D03*
%TD*%
D20*
%TO.C,C1*%
X151000000Y-83737500D03*
X151000000Y-85462500D03*
%TD*%
D16*
%TO.C,U3*%
X144125000Y-110605000D03*
X144125000Y-109335000D03*
X144125000Y-108065000D03*
X144125000Y-106795000D03*
X149075000Y-106795000D03*
X149075000Y-108065000D03*
X149075000Y-109335000D03*
X149075000Y-110605000D03*
%TD*%
D17*
%TO.C,R42*%
X152462500Y-121895000D03*
X154287500Y-121895000D03*
%TD*%
%TO.C,R34*%
X158787500Y-110900000D03*
X160612500Y-110900000D03*
%TD*%
D13*
%TO.C,R19*%
X162600000Y-94862500D03*
X162600000Y-93037500D03*
%TD*%
D18*
%TO.C,C3*%
X151000000Y-88812500D03*
X151000000Y-87087500D03*
%TD*%
D13*
%TO.C,R8*%
X162500000Y-83812500D03*
X162500000Y-81987500D03*
%TD*%
D16*
%TO.C,U2*%
X144025000Y-99505000D03*
X144025000Y-98235000D03*
X144025000Y-96965000D03*
X144025000Y-95695000D03*
X148975000Y-95695000D03*
X148975000Y-96965000D03*
X148975000Y-98235000D03*
X148975000Y-99505000D03*
%TD*%
D17*
%TO.C,R9*%
X152487500Y-88800000D03*
X154312500Y-88800000D03*
%TD*%
D13*
%TO.C,R38*%
X137000000Y-122312500D03*
X137000000Y-120487500D03*
%TD*%
D20*
%TO.C,C7*%
X151100000Y-105637500D03*
X151100000Y-107362500D03*
%TD*%
D14*
%TO.C,R1*%
X120000000Y-90387500D03*
X120000000Y-92212500D03*
%TD*%
D12*
%TO.C,R21*%
X154312500Y-97900000D03*
X152487500Y-97900000D03*
%TD*%
D15*
%TO.C,C5*%
X164137500Y-93400000D03*
X165862500Y-93400000D03*
%TD*%
D16*
%TO.C,U1*%
X144025000Y-88605000D03*
X144025000Y-87335000D03*
X144025000Y-86065000D03*
X144025000Y-84795000D03*
X148975000Y-84795000D03*
X148975000Y-86065000D03*
X148975000Y-87335000D03*
X148975000Y-88605000D03*
%TD*%
D19*
%TO.C,R33*%
X156275000Y-111445000D03*
X156275000Y-108345000D03*
%TD*%
D17*
%TO.C,R23*%
X158887500Y-99800000D03*
X160712500Y-99800000D03*
%TD*%
%TO.C,R12*%
X158787500Y-88800000D03*
X160612500Y-88800000D03*
%TD*%
D14*
%TO.C,R39*%
X138600000Y-120487500D03*
X138600000Y-122312500D03*
%TD*%
%TO.C,R28*%
X138700000Y-109287500D03*
X138700000Y-111112500D03*
%TD*%
%TO.C,R37*%
X141900000Y-121687500D03*
X141900000Y-123512500D03*
%TD*%
D13*
%TO.C,R14*%
X140200000Y-101312500D03*
X140200000Y-99487500D03*
%TD*%
D14*
%TO.C,R4*%
X141900000Y-88587500D03*
X141900000Y-90412500D03*
%TD*%
D17*
%TO.C,R35*%
X162187500Y-110900000D03*
X164012500Y-110900000D03*
%TD*%
D19*
%TO.C,R11*%
X156200000Y-89450000D03*
X156200000Y-86350000D03*
%TD*%
D13*
%TO.C,R3*%
X140300000Y-90412500D03*
X140300000Y-88587500D03*
%TD*%
%TO.C,R30*%
X162500000Y-106012500D03*
X162500000Y-104187500D03*
%TD*%
D17*
%TO.C,R45*%
X158687500Y-122000000D03*
X160512500Y-122000000D03*
%TD*%
D13*
%TO.C,R16*%
X137100000Y-100212500D03*
X137100000Y-98387500D03*
%TD*%
%TO.C,R36*%
X140300000Y-123512500D03*
X140300000Y-121687500D03*
%TD*%
M02*
