%TF.GenerationSoftware,KiCad,Pcbnew,9.0.0*%
%TF.CreationDate,2025-03-25T18:58:09+01:00*%
%TF.ProjectId,HeatingBoard,48656174-696e-4674-926f-6172642e6b69,V1*%
%TF.SameCoordinates,Original*%
%TF.FileFunction,Soldermask,Top*%
%TF.FilePolarity,Negative*%
%FSLAX46Y46*%
G04 Gerber Fmt 4.6, Leading zero omitted, Abs format (unit mm)*
G04 Created by KiCad (PCBNEW 9.0.0) date 2025-03-25 18:58:09*
%MOMM*%
%LPD*%
G01*
G04 APERTURE LIST*
G04 Aperture macros list*
%AMRoundRect*
0 Rectangle with rounded corners*
0 $1 Rounding radius*
0 $2 $3 $4 $5 $6 $7 $8 $9 X,Y pos of 4 corners*
0 Add a 4 corners polygon primitive as box body*
4,1,4,$2,$3,$4,$5,$6,$7,$8,$9,$2,$3,0*
0 Add four circle primitives for the rounded corners*
1,1,$1+$1,$2,$3*
1,1,$1+$1,$4,$5*
1,1,$1+$1,$6,$7*
1,1,$1+$1,$8,$9*
0 Add four rect primitives between the rounded corners*
20,1,$1+$1,$2,$3,$4,$5,0*
20,1,$1+$1,$4,$5,$6,$7,0*
20,1,$1+$1,$6,$7,$8,$9,0*
20,1,$1+$1,$8,$9,$2,$3,0*%
G04 Aperture macros list end*
%ADD10RoundRect,0.102000X0.975000X0.975000X-0.975000X0.975000X-0.975000X-0.975000X0.975000X-0.975000X0*%
%ADD11C,2.154000*%
%ADD12C,6.400000*%
%ADD13RoundRect,0.102000X-0.975000X0.975000X-0.975000X-0.975000X0.975000X-0.975000X0.975000X0.975000X0*%
%ADD14R,2.006600X2.006600*%
%ADD15C,2.006600*%
%ADD16RoundRect,0.102000X0.975000X-0.975000X0.975000X0.975000X-0.975000X0.975000X-0.975000X-0.975000X0*%
%ADD17RoundRect,0.250000X-0.337500X-0.475000X0.337500X-0.475000X0.337500X0.475000X-0.337500X0.475000X0*%
%ADD18RoundRect,0.250000X0.337500X0.475000X-0.337500X0.475000X-0.337500X-0.475000X0.337500X-0.475000X0*%
%ADD19C,6.000000*%
%ADD20R,1.905000X2.000000*%
%ADD21O,1.905000X2.000000*%
%ADD22R,1.000000X1.000000*%
G04 APERTURE END LIST*
D10*
%TO.C,J2*%
X175000000Y-74300000D03*
D11*
X170000000Y-74300000D03*
X165000000Y-74300000D03*
X160000000Y-74300000D03*
X155000000Y-74300000D03*
X150000000Y-74300000D03*
%TD*%
D12*
%TO.C,H4*%
X115000000Y-125000000D03*
%TD*%
D10*
%TO.C,J1*%
X127400000Y-74300000D03*
D11*
X122400000Y-74300000D03*
%TD*%
D13*
%TO.C,J3*%
X114400000Y-87200000D03*
D11*
X114400000Y-92200000D03*
X114400000Y-97200000D03*
%TD*%
D14*
%TO.C,F2*%
X133600000Y-102700000D03*
D15*
X156200000Y-102700000D03*
%TD*%
D16*
%TO.C,J5*%
X185700000Y-114900000D03*
D11*
X185700000Y-109900000D03*
X185700000Y-104900000D03*
X185700000Y-99900000D03*
X185700000Y-94900000D03*
%TD*%
D14*
%TO.C,F4*%
X133600000Y-124700000D03*
D15*
X156200000Y-124700000D03*
%TD*%
D12*
%TO.C,H3*%
X115000000Y-75000000D03*
%TD*%
D14*
%TO.C,F3*%
X133600000Y-113600000D03*
D15*
X156200000Y-113600000D03*
%TD*%
D17*
%TO.C,C14*%
X138712500Y-71650000D03*
X140787500Y-71650000D03*
%TD*%
D18*
%TO.C,C13*%
X136187500Y-71650000D03*
X134112500Y-71650000D03*
%TD*%
D14*
%TO.C,F1*%
X133600000Y-91700000D03*
D15*
X156200000Y-91700000D03*
%TD*%
D12*
%TO.C,H2*%
X185000000Y-125000000D03*
%TD*%
D19*
%TO.C,TP1*%
X185900000Y-86100000D03*
%TD*%
D13*
%TO.C,J4*%
X114400000Y-104200000D03*
D11*
X114400000Y-109200000D03*
X114400000Y-114200000D03*
%TD*%
D20*
%TO.C,U5*%
X141240000Y-74155000D03*
D21*
X138700000Y-74155000D03*
X136160000Y-74155000D03*
%TD*%
D12*
%TO.C,H1*%
X185000000Y-75000000D03*
%TD*%
D22*
%TO.C,TP8*%
X135200000Y-98276750D03*
%TD*%
%TO.C,TP15*%
X154100000Y-113600000D03*
%TD*%
%TO.C,TP7*%
X144000000Y-101300000D03*
%TD*%
%TO.C,TP16*%
X156300000Y-106400000D03*
%TD*%
%TO.C,TP13*%
X135200000Y-109300000D03*
%TD*%
%TO.C,TP17*%
X143900000Y-123600000D03*
%TD*%
%TO.C,TP3*%
X135300000Y-87300000D03*
%TD*%
%TO.C,TP20*%
X153900000Y-124700000D03*
%TD*%
%TO.C,TP10*%
X153900000Y-102700000D03*
%TD*%
%TO.C,TP9*%
X168200000Y-96400000D03*
%TD*%
%TO.C,TP11*%
X156300000Y-95300000D03*
%TD*%
%TO.C,TP4*%
X167900000Y-85400000D03*
%TD*%
%TO.C,TP5*%
X153900000Y-91700000D03*
%TD*%
%TO.C,TP2*%
X144000000Y-90800000D03*
%TD*%
%TO.C,TP12*%
X144100000Y-112400000D03*
%TD*%
%TO.C,TP18*%
X135200000Y-120500000D03*
%TD*%
%TO.C,TP6*%
X156200000Y-84400000D03*
%TD*%
%TO.C,TP19*%
X168100000Y-118500000D03*
%TD*%
%TO.C,TP21*%
X156200000Y-117400000D03*
%TD*%
%TO.C,TP14*%
X168000000Y-107500000D03*
%TD*%
M02*
