%TF.GenerationSoftware,KiCad,Pcbnew,9.0.0*%
%TF.CreationDate,2025-03-25T18:58:08+01:00*%
%TF.ProjectId,HeatingBoard,48656174-696e-4674-926f-6172642e6b69,V1*%
%TF.SameCoordinates,Original*%
%TF.FileFunction,Legend,Top*%
%TF.FilePolarity,Positive*%
%FSLAX46Y46*%
G04 Gerber Fmt 4.6, Leading zero omitted, Abs format (unit mm)*
G04 Created by KiCad (PCBNEW 9.0.0) date 2025-03-25 18:58:08*
%MOMM*%
%LPD*%
G01*
G04 APERTURE LIST*
G04 Aperture macros list*
%AMRoundRect*
0 Rectangle with rounded corners*
0 $1 Rounding radius*
0 $2 $3 $4 $5 $6 $7 $8 $9 X,Y pos of 4 corners*
0 Add a 4 corners polygon primitive as box body*
4,1,4,$2,$3,$4,$5,$6,$7,$8,$9,$2,$3,0*
0 Add four circle primitives for the rounded corners*
1,1,$1+$1,$2,$3*
1,1,$1+$1,$4,$5*
1,1,$1+$1,$6,$7*
1,1,$1+$1,$8,$9*
0 Add four rect primitives between the rounded corners*
20,1,$1+$1,$2,$3,$4,$5,0*
20,1,$1+$1,$4,$5,$6,$7,0*
20,1,$1+$1,$6,$7,$8,$9,0*
20,1,$1+$1,$8,$9,$2,$3,0*%
G04 Aperture macros list end*
%ADD10C,0.100000*%
%ADD11C,0.150000*%
%ADD12C,0.127000*%
%ADD13C,0.200000*%
%ADD14C,0.000000*%
%ADD15C,0.152400*%
%ADD16C,0.120000*%
%ADD17RoundRect,0.102000X0.975000X0.975000X-0.975000X0.975000X-0.975000X-0.975000X0.975000X-0.975000X0*%
%ADD18C,2.154000*%
%ADD19C,6.400000*%
%ADD20RoundRect,0.102000X-0.975000X0.975000X-0.975000X-0.975000X0.975000X-0.975000X0.975000X0.975000X0*%
%ADD21R,2.006600X2.006600*%
%ADD22C,2.006600*%
%ADD23RoundRect,0.102000X0.975000X-0.975000X0.975000X0.975000X-0.975000X0.975000X-0.975000X-0.975000X0*%
%ADD24RoundRect,0.250000X-0.337500X-0.475000X0.337500X-0.475000X0.337500X0.475000X-0.337500X0.475000X0*%
%ADD25RoundRect,0.250000X0.337500X0.475000X-0.337500X0.475000X-0.337500X-0.475000X0.337500X-0.475000X0*%
%ADD26C,6.000000*%
%ADD27R,1.905000X2.000000*%
%ADD28O,1.905000X2.000000*%
%ADD29R,1.000000X1.000000*%
G04 APERTURE END LIST*
D10*
X119350000Y-89400000D02*
X119350000Y-91000000D01*
X127200000Y-78950000D02*
X122600000Y-78950000D01*
X170900000Y-79200000D02*
X169300000Y-79200000D01*
X175300000Y-105900000D02*
X179800000Y-105900000D01*
X119350000Y-91000000D02*
X123850000Y-91000000D01*
X175800000Y-79200000D02*
X175800000Y-83700000D01*
X119350000Y-93200000D02*
X123850000Y-93200000D01*
X179800000Y-105900000D02*
X180100000Y-105900000D01*
X173600000Y-79200000D02*
X173600000Y-83700000D01*
X175300000Y-109700000D02*
X175300000Y-100000000D01*
X119350000Y-94900000D02*
X119350000Y-89400000D01*
X177400000Y-79200000D02*
X175800000Y-79200000D01*
X167100000Y-79200000D02*
X167100000Y-83700000D01*
X171900000Y-79200000D02*
X177400000Y-79200000D01*
X119250000Y-112000000D02*
X119250000Y-106500000D01*
X170900000Y-79200000D02*
X171900000Y-79200000D01*
X175300000Y-108100000D02*
X180200000Y-108100000D01*
X169300000Y-79200000D02*
X169300000Y-83700000D01*
X119250000Y-110300000D02*
X123750000Y-110300000D01*
X119250000Y-106500000D02*
X119250000Y-108100000D01*
X175300000Y-101600000D02*
X180100000Y-101600000D01*
X175300000Y-102100000D02*
X175300000Y-103700000D01*
X171400000Y-79200000D02*
X171400000Y-83700000D01*
X175300000Y-103700000D02*
X179800000Y-103700000D01*
X119250000Y-108100000D02*
X123750000Y-108100000D01*
X179800000Y-103700000D02*
X180100000Y-103700000D01*
X124900000Y-78950000D02*
X124900000Y-83650000D01*
X165400000Y-79200000D02*
X170900000Y-79200000D01*
D11*
X119789160Y-111922200D02*
X119932017Y-111969819D01*
X119932017Y-111969819D02*
X120170112Y-111969819D01*
X120170112Y-111969819D02*
X120265350Y-111922200D01*
X120265350Y-111922200D02*
X120312969Y-111874580D01*
X120312969Y-111874580D02*
X120360588Y-111779342D01*
X120360588Y-111779342D02*
X120360588Y-111684104D01*
X120360588Y-111684104D02*
X120312969Y-111588866D01*
X120312969Y-111588866D02*
X120265350Y-111541247D01*
X120265350Y-111541247D02*
X120170112Y-111493628D01*
X120170112Y-111493628D02*
X119979636Y-111446009D01*
X119979636Y-111446009D02*
X119884398Y-111398390D01*
X119884398Y-111398390D02*
X119836779Y-111350771D01*
X119836779Y-111350771D02*
X119789160Y-111255533D01*
X119789160Y-111255533D02*
X119789160Y-111160295D01*
X119789160Y-111160295D02*
X119836779Y-111065057D01*
X119836779Y-111065057D02*
X119884398Y-111017438D01*
X119884398Y-111017438D02*
X119979636Y-110969819D01*
X119979636Y-110969819D02*
X120217731Y-110969819D01*
X120217731Y-110969819D02*
X120360588Y-111017438D01*
X120789160Y-111969819D02*
X120789160Y-110969819D01*
X120789160Y-110969819D02*
X121027255Y-110969819D01*
X121027255Y-110969819D02*
X121170112Y-111017438D01*
X121170112Y-111017438D02*
X121265350Y-111112676D01*
X121265350Y-111112676D02*
X121312969Y-111207914D01*
X121312969Y-111207914D02*
X121360588Y-111398390D01*
X121360588Y-111398390D02*
X121360588Y-111541247D01*
X121360588Y-111541247D02*
X121312969Y-111731723D01*
X121312969Y-111731723D02*
X121265350Y-111826961D01*
X121265350Y-111826961D02*
X121170112Y-111922200D01*
X121170112Y-111922200D02*
X121027255Y-111969819D01*
X121027255Y-111969819D02*
X120789160Y-111969819D01*
X121741541Y-111684104D02*
X122217731Y-111684104D01*
X121646303Y-111969819D02*
X121979636Y-110969819D01*
X121979636Y-110969819D02*
X122312969Y-111969819D01*
X169830180Y-79736779D02*
X170830180Y-79736779D01*
X170830180Y-79736779D02*
X170830180Y-80117731D01*
X170830180Y-80117731D02*
X170782561Y-80212969D01*
X170782561Y-80212969D02*
X170734942Y-80260588D01*
X170734942Y-80260588D02*
X170639704Y-80308207D01*
X170639704Y-80308207D02*
X170496847Y-80308207D01*
X170496847Y-80308207D02*
X170401609Y-80260588D01*
X170401609Y-80260588D02*
X170353990Y-80212969D01*
X170353990Y-80212969D02*
X170306371Y-80117731D01*
X170306371Y-80117731D02*
X170306371Y-79736779D01*
X170830180Y-80641541D02*
X169830180Y-80879636D01*
X169830180Y-80879636D02*
X170544466Y-81070112D01*
X170544466Y-81070112D02*
X169830180Y-81260588D01*
X169830180Y-81260588D02*
X170830180Y-81498684D01*
X169830180Y-81879636D02*
X170830180Y-81879636D01*
X170830180Y-81879636D02*
X170115895Y-82212969D01*
X170115895Y-82212969D02*
X170830180Y-82546302D01*
X170830180Y-82546302D02*
X169830180Y-82546302D01*
X170734942Y-82974874D02*
X170782561Y-83022493D01*
X170782561Y-83022493D02*
X170830180Y-83117731D01*
X170830180Y-83117731D02*
X170830180Y-83355826D01*
X170830180Y-83355826D02*
X170782561Y-83451064D01*
X170782561Y-83451064D02*
X170734942Y-83498683D01*
X170734942Y-83498683D02*
X170639704Y-83546302D01*
X170639704Y-83546302D02*
X170544466Y-83546302D01*
X170544466Y-83546302D02*
X170401609Y-83498683D01*
X170401609Y-83498683D02*
X169830180Y-82927255D01*
X169830180Y-82927255D02*
X169830180Y-83546302D01*
X175693922Y-102169819D02*
X176027255Y-103169819D01*
X176027255Y-103169819D02*
X176360588Y-102169819D01*
X176884398Y-102169819D02*
X177074874Y-102169819D01*
X177074874Y-102169819D02*
X177170112Y-102217438D01*
X177170112Y-102217438D02*
X177265350Y-102312676D01*
X177265350Y-102312676D02*
X177312969Y-102503152D01*
X177312969Y-102503152D02*
X177312969Y-102836485D01*
X177312969Y-102836485D02*
X177265350Y-103026961D01*
X177265350Y-103026961D02*
X177170112Y-103122200D01*
X177170112Y-103122200D02*
X177074874Y-103169819D01*
X177074874Y-103169819D02*
X176884398Y-103169819D01*
X176884398Y-103169819D02*
X176789160Y-103122200D01*
X176789160Y-103122200D02*
X176693922Y-103026961D01*
X176693922Y-103026961D02*
X176646303Y-102836485D01*
X176646303Y-102836485D02*
X176646303Y-102503152D01*
X176646303Y-102503152D02*
X176693922Y-102312676D01*
X176693922Y-102312676D02*
X176789160Y-102217438D01*
X176789160Y-102217438D02*
X176884398Y-102169819D01*
X177741541Y-102169819D02*
X177741541Y-102979342D01*
X177741541Y-102979342D02*
X177789160Y-103074580D01*
X177789160Y-103074580D02*
X177836779Y-103122200D01*
X177836779Y-103122200D02*
X177932017Y-103169819D01*
X177932017Y-103169819D02*
X178122493Y-103169819D01*
X178122493Y-103169819D02*
X178217731Y-103122200D01*
X178217731Y-103122200D02*
X178265350Y-103074580D01*
X178265350Y-103074580D02*
X178312969Y-102979342D01*
X178312969Y-102979342D02*
X178312969Y-102169819D01*
X178646303Y-102169819D02*
X179217731Y-102169819D01*
X178932017Y-103169819D02*
X178932017Y-102169819D01*
X179503446Y-102265057D02*
X179551065Y-102217438D01*
X179551065Y-102217438D02*
X179646303Y-102169819D01*
X179646303Y-102169819D02*
X179884398Y-102169819D01*
X179884398Y-102169819D02*
X179979636Y-102217438D01*
X179979636Y-102217438D02*
X180027255Y-102265057D01*
X180027255Y-102265057D02*
X180074874Y-102360295D01*
X180074874Y-102360295D02*
X180074874Y-102455533D01*
X180074874Y-102455533D02*
X180027255Y-102598390D01*
X180027255Y-102598390D02*
X179455827Y-103169819D01*
X179455827Y-103169819D02*
X180074874Y-103169819D01*
X166430180Y-79691541D02*
X166430180Y-80310588D01*
X166430180Y-80310588D02*
X166049228Y-79977255D01*
X166049228Y-79977255D02*
X166049228Y-80120112D01*
X166049228Y-80120112D02*
X166001609Y-80215350D01*
X166001609Y-80215350D02*
X165953990Y-80262969D01*
X165953990Y-80262969D02*
X165858752Y-80310588D01*
X165858752Y-80310588D02*
X165620657Y-80310588D01*
X165620657Y-80310588D02*
X165525419Y-80262969D01*
X165525419Y-80262969D02*
X165477800Y-80215350D01*
X165477800Y-80215350D02*
X165430180Y-80120112D01*
X165430180Y-80120112D02*
X165430180Y-79834398D01*
X165430180Y-79834398D02*
X165477800Y-79739160D01*
X165477800Y-79739160D02*
X165525419Y-79691541D01*
X166430180Y-80596303D02*
X165430180Y-80929636D01*
X165430180Y-80929636D02*
X166430180Y-81262969D01*
X166430180Y-81501065D02*
X166430180Y-82120112D01*
X166430180Y-82120112D02*
X166049228Y-81786779D01*
X166049228Y-81786779D02*
X166049228Y-81929636D01*
X166049228Y-81929636D02*
X166001609Y-82024874D01*
X166001609Y-82024874D02*
X165953990Y-82072493D01*
X165953990Y-82072493D02*
X165858752Y-82120112D01*
X165858752Y-82120112D02*
X165620657Y-82120112D01*
X165620657Y-82120112D02*
X165525419Y-82072493D01*
X165525419Y-82072493D02*
X165477800Y-82024874D01*
X165477800Y-82024874D02*
X165430180Y-81929636D01*
X165430180Y-81929636D02*
X165430180Y-81643922D01*
X165430180Y-81643922D02*
X165477800Y-81548684D01*
X165477800Y-81548684D02*
X165525419Y-81501065D01*
X175693922Y-100069819D02*
X176027255Y-101069819D01*
X176027255Y-101069819D02*
X176360588Y-100069819D01*
X176884398Y-100069819D02*
X177074874Y-100069819D01*
X177074874Y-100069819D02*
X177170112Y-100117438D01*
X177170112Y-100117438D02*
X177265350Y-100212676D01*
X177265350Y-100212676D02*
X177312969Y-100403152D01*
X177312969Y-100403152D02*
X177312969Y-100736485D01*
X177312969Y-100736485D02*
X177265350Y-100926961D01*
X177265350Y-100926961D02*
X177170112Y-101022200D01*
X177170112Y-101022200D02*
X177074874Y-101069819D01*
X177074874Y-101069819D02*
X176884398Y-101069819D01*
X176884398Y-101069819D02*
X176789160Y-101022200D01*
X176789160Y-101022200D02*
X176693922Y-100926961D01*
X176693922Y-100926961D02*
X176646303Y-100736485D01*
X176646303Y-100736485D02*
X176646303Y-100403152D01*
X176646303Y-100403152D02*
X176693922Y-100212676D01*
X176693922Y-100212676D02*
X176789160Y-100117438D01*
X176789160Y-100117438D02*
X176884398Y-100069819D01*
X177741541Y-100069819D02*
X177741541Y-100879342D01*
X177741541Y-100879342D02*
X177789160Y-100974580D01*
X177789160Y-100974580D02*
X177836779Y-101022200D01*
X177836779Y-101022200D02*
X177932017Y-101069819D01*
X177932017Y-101069819D02*
X178122493Y-101069819D01*
X178122493Y-101069819D02*
X178217731Y-101022200D01*
X178217731Y-101022200D02*
X178265350Y-100974580D01*
X178265350Y-100974580D02*
X178312969Y-100879342D01*
X178312969Y-100879342D02*
X178312969Y-100069819D01*
X178646303Y-100069819D02*
X179217731Y-100069819D01*
X178932017Y-101069819D02*
X178932017Y-100069819D01*
X180074874Y-101069819D02*
X179503446Y-101069819D01*
X179789160Y-101069819D02*
X179789160Y-100069819D01*
X179789160Y-100069819D02*
X179693922Y-100212676D01*
X179693922Y-100212676D02*
X179598684Y-100307914D01*
X179598684Y-100307914D02*
X179503446Y-100355533D01*
X167630180Y-79736779D02*
X168630180Y-79736779D01*
X168630180Y-79736779D02*
X168630180Y-80117731D01*
X168630180Y-80117731D02*
X168582561Y-80212969D01*
X168582561Y-80212969D02*
X168534942Y-80260588D01*
X168534942Y-80260588D02*
X168439704Y-80308207D01*
X168439704Y-80308207D02*
X168296847Y-80308207D01*
X168296847Y-80308207D02*
X168201609Y-80260588D01*
X168201609Y-80260588D02*
X168153990Y-80212969D01*
X168153990Y-80212969D02*
X168106371Y-80117731D01*
X168106371Y-80117731D02*
X168106371Y-79736779D01*
X168630180Y-80641541D02*
X167630180Y-80879636D01*
X167630180Y-80879636D02*
X168344466Y-81070112D01*
X168344466Y-81070112D02*
X167630180Y-81260588D01*
X167630180Y-81260588D02*
X168630180Y-81498684D01*
X167630180Y-81879636D02*
X168630180Y-81879636D01*
X168630180Y-81879636D02*
X167915895Y-82212969D01*
X167915895Y-82212969D02*
X168630180Y-82546302D01*
X168630180Y-82546302D02*
X167630180Y-82546302D01*
X167630180Y-83546302D02*
X167630180Y-82974874D01*
X167630180Y-83260588D02*
X168630180Y-83260588D01*
X168630180Y-83260588D02*
X168487323Y-83165350D01*
X168487323Y-83165350D02*
X168392085Y-83070112D01*
X168392085Y-83070112D02*
X168344466Y-82974874D01*
X119839160Y-92622200D02*
X119982017Y-92669819D01*
X119982017Y-92669819D02*
X120220112Y-92669819D01*
X120220112Y-92669819D02*
X120315350Y-92622200D01*
X120315350Y-92622200D02*
X120362969Y-92574580D01*
X120362969Y-92574580D02*
X120410588Y-92479342D01*
X120410588Y-92479342D02*
X120410588Y-92384104D01*
X120410588Y-92384104D02*
X120362969Y-92288866D01*
X120362969Y-92288866D02*
X120315350Y-92241247D01*
X120315350Y-92241247D02*
X120220112Y-92193628D01*
X120220112Y-92193628D02*
X120029636Y-92146009D01*
X120029636Y-92146009D02*
X119934398Y-92098390D01*
X119934398Y-92098390D02*
X119886779Y-92050771D01*
X119886779Y-92050771D02*
X119839160Y-91955533D01*
X119839160Y-91955533D02*
X119839160Y-91860295D01*
X119839160Y-91860295D02*
X119886779Y-91765057D01*
X119886779Y-91765057D02*
X119934398Y-91717438D01*
X119934398Y-91717438D02*
X120029636Y-91669819D01*
X120029636Y-91669819D02*
X120267731Y-91669819D01*
X120267731Y-91669819D02*
X120410588Y-91717438D01*
X121410588Y-92574580D02*
X121362969Y-92622200D01*
X121362969Y-92622200D02*
X121220112Y-92669819D01*
X121220112Y-92669819D02*
X121124874Y-92669819D01*
X121124874Y-92669819D02*
X120982017Y-92622200D01*
X120982017Y-92622200D02*
X120886779Y-92526961D01*
X120886779Y-92526961D02*
X120839160Y-92431723D01*
X120839160Y-92431723D02*
X120791541Y-92241247D01*
X120791541Y-92241247D02*
X120791541Y-92098390D01*
X120791541Y-92098390D02*
X120839160Y-91907914D01*
X120839160Y-91907914D02*
X120886779Y-91812676D01*
X120886779Y-91812676D02*
X120982017Y-91717438D01*
X120982017Y-91717438D02*
X121124874Y-91669819D01*
X121124874Y-91669819D02*
X121220112Y-91669819D01*
X121220112Y-91669819D02*
X121362969Y-91717438D01*
X121362969Y-91717438D02*
X121410588Y-91765057D01*
X122315350Y-92669819D02*
X121839160Y-92669819D01*
X121839160Y-92669819D02*
X121839160Y-91669819D01*
X119739160Y-109722200D02*
X119882017Y-109769819D01*
X119882017Y-109769819D02*
X120120112Y-109769819D01*
X120120112Y-109769819D02*
X120215350Y-109722200D01*
X120215350Y-109722200D02*
X120262969Y-109674580D01*
X120262969Y-109674580D02*
X120310588Y-109579342D01*
X120310588Y-109579342D02*
X120310588Y-109484104D01*
X120310588Y-109484104D02*
X120262969Y-109388866D01*
X120262969Y-109388866D02*
X120215350Y-109341247D01*
X120215350Y-109341247D02*
X120120112Y-109293628D01*
X120120112Y-109293628D02*
X119929636Y-109246009D01*
X119929636Y-109246009D02*
X119834398Y-109198390D01*
X119834398Y-109198390D02*
X119786779Y-109150771D01*
X119786779Y-109150771D02*
X119739160Y-109055533D01*
X119739160Y-109055533D02*
X119739160Y-108960295D01*
X119739160Y-108960295D02*
X119786779Y-108865057D01*
X119786779Y-108865057D02*
X119834398Y-108817438D01*
X119834398Y-108817438D02*
X119929636Y-108769819D01*
X119929636Y-108769819D02*
X120167731Y-108769819D01*
X120167731Y-108769819D02*
X120310588Y-108817438D01*
X121310588Y-109674580D02*
X121262969Y-109722200D01*
X121262969Y-109722200D02*
X121120112Y-109769819D01*
X121120112Y-109769819D02*
X121024874Y-109769819D01*
X121024874Y-109769819D02*
X120882017Y-109722200D01*
X120882017Y-109722200D02*
X120786779Y-109626961D01*
X120786779Y-109626961D02*
X120739160Y-109531723D01*
X120739160Y-109531723D02*
X120691541Y-109341247D01*
X120691541Y-109341247D02*
X120691541Y-109198390D01*
X120691541Y-109198390D02*
X120739160Y-109007914D01*
X120739160Y-109007914D02*
X120786779Y-108912676D01*
X120786779Y-108912676D02*
X120882017Y-108817438D01*
X120882017Y-108817438D02*
X121024874Y-108769819D01*
X121024874Y-108769819D02*
X121120112Y-108769819D01*
X121120112Y-108769819D02*
X121262969Y-108817438D01*
X121262969Y-108817438D02*
X121310588Y-108865057D01*
X122215350Y-109769819D02*
X121739160Y-109769819D01*
X121739160Y-109769819D02*
X121739160Y-108769819D01*
X119839160Y-94822200D02*
X119982017Y-94869819D01*
X119982017Y-94869819D02*
X120220112Y-94869819D01*
X120220112Y-94869819D02*
X120315350Y-94822200D01*
X120315350Y-94822200D02*
X120362969Y-94774580D01*
X120362969Y-94774580D02*
X120410588Y-94679342D01*
X120410588Y-94679342D02*
X120410588Y-94584104D01*
X120410588Y-94584104D02*
X120362969Y-94488866D01*
X120362969Y-94488866D02*
X120315350Y-94441247D01*
X120315350Y-94441247D02*
X120220112Y-94393628D01*
X120220112Y-94393628D02*
X120029636Y-94346009D01*
X120029636Y-94346009D02*
X119934398Y-94298390D01*
X119934398Y-94298390D02*
X119886779Y-94250771D01*
X119886779Y-94250771D02*
X119839160Y-94155533D01*
X119839160Y-94155533D02*
X119839160Y-94060295D01*
X119839160Y-94060295D02*
X119886779Y-93965057D01*
X119886779Y-93965057D02*
X119934398Y-93917438D01*
X119934398Y-93917438D02*
X120029636Y-93869819D01*
X120029636Y-93869819D02*
X120267731Y-93869819D01*
X120267731Y-93869819D02*
X120410588Y-93917438D01*
X120839160Y-94869819D02*
X120839160Y-93869819D01*
X120839160Y-93869819D02*
X121077255Y-93869819D01*
X121077255Y-93869819D02*
X121220112Y-93917438D01*
X121220112Y-93917438D02*
X121315350Y-94012676D01*
X121315350Y-94012676D02*
X121362969Y-94107914D01*
X121362969Y-94107914D02*
X121410588Y-94298390D01*
X121410588Y-94298390D02*
X121410588Y-94441247D01*
X121410588Y-94441247D02*
X121362969Y-94631723D01*
X121362969Y-94631723D02*
X121315350Y-94726961D01*
X121315350Y-94726961D02*
X121220112Y-94822200D01*
X121220112Y-94822200D02*
X121077255Y-94869819D01*
X121077255Y-94869819D02*
X120839160Y-94869819D01*
X121791541Y-94584104D02*
X122267731Y-94584104D01*
X121696303Y-94869819D02*
X122029636Y-93869819D01*
X122029636Y-93869819D02*
X122362969Y-94869819D01*
X125369819Y-83656077D02*
X126369819Y-83322744D01*
X126369819Y-83322744D02*
X125369819Y-82989411D01*
X125846009Y-82322744D02*
X125893628Y-82179887D01*
X125893628Y-82179887D02*
X125941247Y-82132268D01*
X125941247Y-82132268D02*
X126036485Y-82084649D01*
X126036485Y-82084649D02*
X126179342Y-82084649D01*
X126179342Y-82084649D02*
X126274580Y-82132268D01*
X126274580Y-82132268D02*
X126322200Y-82179887D01*
X126322200Y-82179887D02*
X126369819Y-82275125D01*
X126369819Y-82275125D02*
X126369819Y-82656077D01*
X126369819Y-82656077D02*
X125369819Y-82656077D01*
X125369819Y-82656077D02*
X125369819Y-82322744D01*
X125369819Y-82322744D02*
X125417438Y-82227506D01*
X125417438Y-82227506D02*
X125465057Y-82179887D01*
X125465057Y-82179887D02*
X125560295Y-82132268D01*
X125560295Y-82132268D02*
X125655533Y-82132268D01*
X125655533Y-82132268D02*
X125750771Y-82179887D01*
X125750771Y-82179887D02*
X125798390Y-82227506D01*
X125798390Y-82227506D02*
X125846009Y-82322744D01*
X125846009Y-82322744D02*
X125846009Y-82656077D01*
X126084104Y-81703696D02*
X126084104Y-81227506D01*
X126369819Y-81798934D02*
X125369819Y-81465601D01*
X125369819Y-81465601D02*
X126369819Y-81132268D01*
X125369819Y-80941791D02*
X125369819Y-80370363D01*
X126369819Y-80656077D02*
X125369819Y-80656077D01*
X125369819Y-80179886D02*
X125369819Y-79608458D01*
X126369819Y-79894172D02*
X125369819Y-79894172D01*
X175743922Y-106569819D02*
X176077255Y-107569819D01*
X176077255Y-107569819D02*
X176410588Y-106569819D01*
X176934398Y-106569819D02*
X177124874Y-106569819D01*
X177124874Y-106569819D02*
X177220112Y-106617438D01*
X177220112Y-106617438D02*
X177315350Y-106712676D01*
X177315350Y-106712676D02*
X177362969Y-106903152D01*
X177362969Y-106903152D02*
X177362969Y-107236485D01*
X177362969Y-107236485D02*
X177315350Y-107426961D01*
X177315350Y-107426961D02*
X177220112Y-107522200D01*
X177220112Y-107522200D02*
X177124874Y-107569819D01*
X177124874Y-107569819D02*
X176934398Y-107569819D01*
X176934398Y-107569819D02*
X176839160Y-107522200D01*
X176839160Y-107522200D02*
X176743922Y-107426961D01*
X176743922Y-107426961D02*
X176696303Y-107236485D01*
X176696303Y-107236485D02*
X176696303Y-106903152D01*
X176696303Y-106903152D02*
X176743922Y-106712676D01*
X176743922Y-106712676D02*
X176839160Y-106617438D01*
X176839160Y-106617438D02*
X176934398Y-106569819D01*
X177791541Y-106569819D02*
X177791541Y-107379342D01*
X177791541Y-107379342D02*
X177839160Y-107474580D01*
X177839160Y-107474580D02*
X177886779Y-107522200D01*
X177886779Y-107522200D02*
X177982017Y-107569819D01*
X177982017Y-107569819D02*
X178172493Y-107569819D01*
X178172493Y-107569819D02*
X178267731Y-107522200D01*
X178267731Y-107522200D02*
X178315350Y-107474580D01*
X178315350Y-107474580D02*
X178362969Y-107379342D01*
X178362969Y-107379342D02*
X178362969Y-106569819D01*
X178696303Y-106569819D02*
X179267731Y-106569819D01*
X178982017Y-107569819D02*
X178982017Y-106569819D01*
X180029636Y-106903152D02*
X180029636Y-107569819D01*
X179791541Y-106522200D02*
X179553446Y-107236485D01*
X179553446Y-107236485D02*
X180172493Y-107236485D01*
X176460588Y-108717438D02*
X176365350Y-108669819D01*
X176365350Y-108669819D02*
X176222493Y-108669819D01*
X176222493Y-108669819D02*
X176079636Y-108717438D01*
X176079636Y-108717438D02*
X175984398Y-108812676D01*
X175984398Y-108812676D02*
X175936779Y-108907914D01*
X175936779Y-108907914D02*
X175889160Y-109098390D01*
X175889160Y-109098390D02*
X175889160Y-109241247D01*
X175889160Y-109241247D02*
X175936779Y-109431723D01*
X175936779Y-109431723D02*
X175984398Y-109526961D01*
X175984398Y-109526961D02*
X176079636Y-109622200D01*
X176079636Y-109622200D02*
X176222493Y-109669819D01*
X176222493Y-109669819D02*
X176317731Y-109669819D01*
X176317731Y-109669819D02*
X176460588Y-109622200D01*
X176460588Y-109622200D02*
X176508207Y-109574580D01*
X176508207Y-109574580D02*
X176508207Y-109241247D01*
X176508207Y-109241247D02*
X176317731Y-109241247D01*
X176936779Y-109669819D02*
X176936779Y-108669819D01*
X176936779Y-108669819D02*
X177508207Y-109669819D01*
X177508207Y-109669819D02*
X177508207Y-108669819D01*
X177984398Y-109669819D02*
X177984398Y-108669819D01*
X177984398Y-108669819D02*
X178222493Y-108669819D01*
X178222493Y-108669819D02*
X178365350Y-108717438D01*
X178365350Y-108717438D02*
X178460588Y-108812676D01*
X178460588Y-108812676D02*
X178508207Y-108907914D01*
X178508207Y-108907914D02*
X178555826Y-109098390D01*
X178555826Y-109098390D02*
X178555826Y-109241247D01*
X178555826Y-109241247D02*
X178508207Y-109431723D01*
X178508207Y-109431723D02*
X178460588Y-109526961D01*
X178460588Y-109526961D02*
X178365350Y-109622200D01*
X178365350Y-109622200D02*
X178222493Y-109669819D01*
X178222493Y-109669819D02*
X177984398Y-109669819D01*
X120310588Y-106617438D02*
X120215350Y-106569819D01*
X120215350Y-106569819D02*
X120072493Y-106569819D01*
X120072493Y-106569819D02*
X119929636Y-106617438D01*
X119929636Y-106617438D02*
X119834398Y-106712676D01*
X119834398Y-106712676D02*
X119786779Y-106807914D01*
X119786779Y-106807914D02*
X119739160Y-106998390D01*
X119739160Y-106998390D02*
X119739160Y-107141247D01*
X119739160Y-107141247D02*
X119786779Y-107331723D01*
X119786779Y-107331723D02*
X119834398Y-107426961D01*
X119834398Y-107426961D02*
X119929636Y-107522200D01*
X119929636Y-107522200D02*
X120072493Y-107569819D01*
X120072493Y-107569819D02*
X120167731Y-107569819D01*
X120167731Y-107569819D02*
X120310588Y-107522200D01*
X120310588Y-107522200D02*
X120358207Y-107474580D01*
X120358207Y-107474580D02*
X120358207Y-107141247D01*
X120358207Y-107141247D02*
X120167731Y-107141247D01*
X120786779Y-107569819D02*
X120786779Y-106569819D01*
X120786779Y-106569819D02*
X121358207Y-107569819D01*
X121358207Y-107569819D02*
X121358207Y-106569819D01*
X121834398Y-107569819D02*
X121834398Y-106569819D01*
X121834398Y-106569819D02*
X122072493Y-106569819D01*
X122072493Y-106569819D02*
X122215350Y-106617438D01*
X122215350Y-106617438D02*
X122310588Y-106712676D01*
X122310588Y-106712676D02*
X122358207Y-106807914D01*
X122358207Y-106807914D02*
X122405826Y-106998390D01*
X122405826Y-106998390D02*
X122405826Y-107141247D01*
X122405826Y-107141247D02*
X122358207Y-107331723D01*
X122358207Y-107331723D02*
X122310588Y-107426961D01*
X122310588Y-107426961D02*
X122215350Y-107522200D01*
X122215350Y-107522200D02*
X122072493Y-107569819D01*
X122072493Y-107569819D02*
X121834398Y-107569819D01*
X171930180Y-79786779D02*
X172930180Y-79786779D01*
X172930180Y-79786779D02*
X172930180Y-80167731D01*
X172930180Y-80167731D02*
X172882561Y-80262969D01*
X172882561Y-80262969D02*
X172834942Y-80310588D01*
X172834942Y-80310588D02*
X172739704Y-80358207D01*
X172739704Y-80358207D02*
X172596847Y-80358207D01*
X172596847Y-80358207D02*
X172501609Y-80310588D01*
X172501609Y-80310588D02*
X172453990Y-80262969D01*
X172453990Y-80262969D02*
X172406371Y-80167731D01*
X172406371Y-80167731D02*
X172406371Y-79786779D01*
X172930180Y-80691541D02*
X171930180Y-80929636D01*
X171930180Y-80929636D02*
X172644466Y-81120112D01*
X172644466Y-81120112D02*
X171930180Y-81310588D01*
X171930180Y-81310588D02*
X172930180Y-81548684D01*
X171930180Y-81929636D02*
X172930180Y-81929636D01*
X172930180Y-81929636D02*
X172215895Y-82262969D01*
X172215895Y-82262969D02*
X172930180Y-82596302D01*
X172930180Y-82596302D02*
X171930180Y-82596302D01*
X172930180Y-82977255D02*
X172930180Y-83596302D01*
X172930180Y-83596302D02*
X172549228Y-83262969D01*
X172549228Y-83262969D02*
X172549228Y-83405826D01*
X172549228Y-83405826D02*
X172501609Y-83501064D01*
X172501609Y-83501064D02*
X172453990Y-83548683D01*
X172453990Y-83548683D02*
X172358752Y-83596302D01*
X172358752Y-83596302D02*
X172120657Y-83596302D01*
X172120657Y-83596302D02*
X172025419Y-83548683D01*
X172025419Y-83548683D02*
X171977800Y-83501064D01*
X171977800Y-83501064D02*
X171930180Y-83405826D01*
X171930180Y-83405826D02*
X171930180Y-83120112D01*
X171930180Y-83120112D02*
X171977800Y-83024874D01*
X171977800Y-83024874D02*
X172025419Y-82977255D01*
X175693922Y-104369819D02*
X176027255Y-105369819D01*
X176027255Y-105369819D02*
X176360588Y-104369819D01*
X176884398Y-104369819D02*
X177074874Y-104369819D01*
X177074874Y-104369819D02*
X177170112Y-104417438D01*
X177170112Y-104417438D02*
X177265350Y-104512676D01*
X177265350Y-104512676D02*
X177312969Y-104703152D01*
X177312969Y-104703152D02*
X177312969Y-105036485D01*
X177312969Y-105036485D02*
X177265350Y-105226961D01*
X177265350Y-105226961D02*
X177170112Y-105322200D01*
X177170112Y-105322200D02*
X177074874Y-105369819D01*
X177074874Y-105369819D02*
X176884398Y-105369819D01*
X176884398Y-105369819D02*
X176789160Y-105322200D01*
X176789160Y-105322200D02*
X176693922Y-105226961D01*
X176693922Y-105226961D02*
X176646303Y-105036485D01*
X176646303Y-105036485D02*
X176646303Y-104703152D01*
X176646303Y-104703152D02*
X176693922Y-104512676D01*
X176693922Y-104512676D02*
X176789160Y-104417438D01*
X176789160Y-104417438D02*
X176884398Y-104369819D01*
X177741541Y-104369819D02*
X177741541Y-105179342D01*
X177741541Y-105179342D02*
X177789160Y-105274580D01*
X177789160Y-105274580D02*
X177836779Y-105322200D01*
X177836779Y-105322200D02*
X177932017Y-105369819D01*
X177932017Y-105369819D02*
X178122493Y-105369819D01*
X178122493Y-105369819D02*
X178217731Y-105322200D01*
X178217731Y-105322200D02*
X178265350Y-105274580D01*
X178265350Y-105274580D02*
X178312969Y-105179342D01*
X178312969Y-105179342D02*
X178312969Y-104369819D01*
X178646303Y-104369819D02*
X179217731Y-104369819D01*
X178932017Y-105369819D02*
X178932017Y-104369819D01*
X179455827Y-104369819D02*
X180074874Y-104369819D01*
X180074874Y-104369819D02*
X179741541Y-104750771D01*
X179741541Y-104750771D02*
X179884398Y-104750771D01*
X179884398Y-104750771D02*
X179979636Y-104798390D01*
X179979636Y-104798390D02*
X180027255Y-104846009D01*
X180027255Y-104846009D02*
X180074874Y-104941247D01*
X180074874Y-104941247D02*
X180074874Y-105179342D01*
X180074874Y-105179342D02*
X180027255Y-105274580D01*
X180027255Y-105274580D02*
X179979636Y-105322200D01*
X179979636Y-105322200D02*
X179884398Y-105369819D01*
X179884398Y-105369819D02*
X179598684Y-105369819D01*
X179598684Y-105369819D02*
X179503446Y-105322200D01*
X179503446Y-105322200D02*
X179455827Y-105274580D01*
X174130180Y-79736779D02*
X175130180Y-79736779D01*
X175130180Y-79736779D02*
X175130180Y-80117731D01*
X175130180Y-80117731D02*
X175082561Y-80212969D01*
X175082561Y-80212969D02*
X175034942Y-80260588D01*
X175034942Y-80260588D02*
X174939704Y-80308207D01*
X174939704Y-80308207D02*
X174796847Y-80308207D01*
X174796847Y-80308207D02*
X174701609Y-80260588D01*
X174701609Y-80260588D02*
X174653990Y-80212969D01*
X174653990Y-80212969D02*
X174606371Y-80117731D01*
X174606371Y-80117731D02*
X174606371Y-79736779D01*
X175130180Y-80641541D02*
X174130180Y-80879636D01*
X174130180Y-80879636D02*
X174844466Y-81070112D01*
X174844466Y-81070112D02*
X174130180Y-81260588D01*
X174130180Y-81260588D02*
X175130180Y-81498684D01*
X174130180Y-81879636D02*
X175130180Y-81879636D01*
X175130180Y-81879636D02*
X174415895Y-82212969D01*
X174415895Y-82212969D02*
X175130180Y-82546302D01*
X175130180Y-82546302D02*
X174130180Y-82546302D01*
X174796847Y-83451064D02*
X174130180Y-83451064D01*
X175177800Y-83212969D02*
X174463514Y-82974874D01*
X174463514Y-82974874D02*
X174463514Y-83593921D01*
X177282561Y-80260588D02*
X177330180Y-80165350D01*
X177330180Y-80165350D02*
X177330180Y-80022493D01*
X177330180Y-80022493D02*
X177282561Y-79879636D01*
X177282561Y-79879636D02*
X177187323Y-79784398D01*
X177187323Y-79784398D02*
X177092085Y-79736779D01*
X177092085Y-79736779D02*
X176901609Y-79689160D01*
X176901609Y-79689160D02*
X176758752Y-79689160D01*
X176758752Y-79689160D02*
X176568276Y-79736779D01*
X176568276Y-79736779D02*
X176473038Y-79784398D01*
X176473038Y-79784398D02*
X176377800Y-79879636D01*
X176377800Y-79879636D02*
X176330180Y-80022493D01*
X176330180Y-80022493D02*
X176330180Y-80117731D01*
X176330180Y-80117731D02*
X176377800Y-80260588D01*
X176377800Y-80260588D02*
X176425419Y-80308207D01*
X176425419Y-80308207D02*
X176758752Y-80308207D01*
X176758752Y-80308207D02*
X176758752Y-80117731D01*
X176330180Y-80736779D02*
X177330180Y-80736779D01*
X177330180Y-80736779D02*
X176330180Y-81308207D01*
X176330180Y-81308207D02*
X177330180Y-81308207D01*
X176330180Y-81784398D02*
X177330180Y-81784398D01*
X177330180Y-81784398D02*
X177330180Y-82022493D01*
X177330180Y-82022493D02*
X177282561Y-82165350D01*
X177282561Y-82165350D02*
X177187323Y-82260588D01*
X177187323Y-82260588D02*
X177092085Y-82308207D01*
X177092085Y-82308207D02*
X176901609Y-82355826D01*
X176901609Y-82355826D02*
X176758752Y-82355826D01*
X176758752Y-82355826D02*
X176568276Y-82308207D01*
X176568276Y-82308207D02*
X176473038Y-82260588D01*
X176473038Y-82260588D02*
X176377800Y-82165350D01*
X176377800Y-82165350D02*
X176330180Y-82022493D01*
X176330180Y-82022493D02*
X176330180Y-81784398D01*
X120410588Y-89517438D02*
X120315350Y-89469819D01*
X120315350Y-89469819D02*
X120172493Y-89469819D01*
X120172493Y-89469819D02*
X120029636Y-89517438D01*
X120029636Y-89517438D02*
X119934398Y-89612676D01*
X119934398Y-89612676D02*
X119886779Y-89707914D01*
X119886779Y-89707914D02*
X119839160Y-89898390D01*
X119839160Y-89898390D02*
X119839160Y-90041247D01*
X119839160Y-90041247D02*
X119886779Y-90231723D01*
X119886779Y-90231723D02*
X119934398Y-90326961D01*
X119934398Y-90326961D02*
X120029636Y-90422200D01*
X120029636Y-90422200D02*
X120172493Y-90469819D01*
X120172493Y-90469819D02*
X120267731Y-90469819D01*
X120267731Y-90469819D02*
X120410588Y-90422200D01*
X120410588Y-90422200D02*
X120458207Y-90374580D01*
X120458207Y-90374580D02*
X120458207Y-90041247D01*
X120458207Y-90041247D02*
X120267731Y-90041247D01*
X120886779Y-90469819D02*
X120886779Y-89469819D01*
X120886779Y-89469819D02*
X121458207Y-90469819D01*
X121458207Y-90469819D02*
X121458207Y-89469819D01*
X121934398Y-90469819D02*
X121934398Y-89469819D01*
X121934398Y-89469819D02*
X122172493Y-89469819D01*
X122172493Y-89469819D02*
X122315350Y-89517438D01*
X122315350Y-89517438D02*
X122410588Y-89612676D01*
X122410588Y-89612676D02*
X122458207Y-89707914D01*
X122458207Y-89707914D02*
X122505826Y-89898390D01*
X122505826Y-89898390D02*
X122505826Y-90041247D01*
X122505826Y-90041247D02*
X122458207Y-90231723D01*
X122458207Y-90231723D02*
X122410588Y-90326961D01*
X122410588Y-90326961D02*
X122315350Y-90422200D01*
X122315350Y-90422200D02*
X122172493Y-90469819D01*
X122172493Y-90469819D02*
X121934398Y-90469819D01*
X123317438Y-82989411D02*
X123269819Y-83084649D01*
X123269819Y-83084649D02*
X123269819Y-83227506D01*
X123269819Y-83227506D02*
X123317438Y-83370363D01*
X123317438Y-83370363D02*
X123412676Y-83465601D01*
X123412676Y-83465601D02*
X123507914Y-83513220D01*
X123507914Y-83513220D02*
X123698390Y-83560839D01*
X123698390Y-83560839D02*
X123841247Y-83560839D01*
X123841247Y-83560839D02*
X124031723Y-83513220D01*
X124031723Y-83513220D02*
X124126961Y-83465601D01*
X124126961Y-83465601D02*
X124222200Y-83370363D01*
X124222200Y-83370363D02*
X124269819Y-83227506D01*
X124269819Y-83227506D02*
X124269819Y-83132268D01*
X124269819Y-83132268D02*
X124222200Y-82989411D01*
X124222200Y-82989411D02*
X124174580Y-82941792D01*
X124174580Y-82941792D02*
X123841247Y-82941792D01*
X123841247Y-82941792D02*
X123841247Y-83132268D01*
X124269819Y-82513220D02*
X123269819Y-82513220D01*
X123269819Y-82513220D02*
X124269819Y-81941792D01*
X124269819Y-81941792D02*
X123269819Y-81941792D01*
X124269819Y-81465601D02*
X123269819Y-81465601D01*
X123269819Y-81465601D02*
X123269819Y-81227506D01*
X123269819Y-81227506D02*
X123317438Y-81084649D01*
X123317438Y-81084649D02*
X123412676Y-80989411D01*
X123412676Y-80989411D02*
X123507914Y-80941792D01*
X123507914Y-80941792D02*
X123698390Y-80894173D01*
X123698390Y-80894173D02*
X123841247Y-80894173D01*
X123841247Y-80894173D02*
X124031723Y-80941792D01*
X124031723Y-80941792D02*
X124126961Y-80989411D01*
X124126961Y-80989411D02*
X124222200Y-81084649D01*
X124222200Y-81084649D02*
X124269819Y-81227506D01*
X124269819Y-81227506D02*
X124269819Y-81465601D01*
X178154819Y-71733333D02*
X178869104Y-71733333D01*
X178869104Y-71733333D02*
X179011961Y-71780952D01*
X179011961Y-71780952D02*
X179107200Y-71876190D01*
X179107200Y-71876190D02*
X179154819Y-72019047D01*
X179154819Y-72019047D02*
X179154819Y-72114285D01*
X178250057Y-71304761D02*
X178202438Y-71257142D01*
X178202438Y-71257142D02*
X178154819Y-71161904D01*
X178154819Y-71161904D02*
X178154819Y-70923809D01*
X178154819Y-70923809D02*
X178202438Y-70828571D01*
X178202438Y-70828571D02*
X178250057Y-70780952D01*
X178250057Y-70780952D02*
X178345295Y-70733333D01*
X178345295Y-70733333D02*
X178440533Y-70733333D01*
X178440533Y-70733333D02*
X178583390Y-70780952D01*
X178583390Y-70780952D02*
X179154819Y-71352380D01*
X179154819Y-71352380D02*
X179154819Y-70733333D01*
X130354819Y-77733333D02*
X131069104Y-77733333D01*
X131069104Y-77733333D02*
X131211961Y-77780952D01*
X131211961Y-77780952D02*
X131307200Y-77876190D01*
X131307200Y-77876190D02*
X131354819Y-78019047D01*
X131354819Y-78019047D02*
X131354819Y-78114285D01*
X131354819Y-76733333D02*
X131354819Y-77304761D01*
X131354819Y-77019047D02*
X130354819Y-77019047D01*
X130354819Y-77019047D02*
X130497676Y-77114285D01*
X130497676Y-77114285D02*
X130592914Y-77209523D01*
X130592914Y-77209523D02*
X130640533Y-77304761D01*
X111366666Y-83154819D02*
X111366666Y-83869104D01*
X111366666Y-83869104D02*
X111319047Y-84011961D01*
X111319047Y-84011961D02*
X111223809Y-84107200D01*
X111223809Y-84107200D02*
X111080952Y-84154819D01*
X111080952Y-84154819D02*
X110985714Y-84154819D01*
X111747619Y-83154819D02*
X112366666Y-83154819D01*
X112366666Y-83154819D02*
X112033333Y-83535771D01*
X112033333Y-83535771D02*
X112176190Y-83535771D01*
X112176190Y-83535771D02*
X112271428Y-83583390D01*
X112271428Y-83583390D02*
X112319047Y-83631009D01*
X112319047Y-83631009D02*
X112366666Y-83726247D01*
X112366666Y-83726247D02*
X112366666Y-83964342D01*
X112366666Y-83964342D02*
X112319047Y-84059580D01*
X112319047Y-84059580D02*
X112271428Y-84107200D01*
X112271428Y-84107200D02*
X112176190Y-84154819D01*
X112176190Y-84154819D02*
X111890476Y-84154819D01*
X111890476Y-84154819D02*
X111795238Y-84107200D01*
X111795238Y-84107200D02*
X111747619Y-84059580D01*
X144566666Y-102631009D02*
X144233333Y-102631009D01*
X144233333Y-103154819D02*
X144233333Y-102154819D01*
X144233333Y-102154819D02*
X144709523Y-102154819D01*
X145042857Y-102250057D02*
X145090476Y-102202438D01*
X145090476Y-102202438D02*
X145185714Y-102154819D01*
X145185714Y-102154819D02*
X145423809Y-102154819D01*
X145423809Y-102154819D02*
X145519047Y-102202438D01*
X145519047Y-102202438D02*
X145566666Y-102250057D01*
X145566666Y-102250057D02*
X145614285Y-102345295D01*
X145614285Y-102345295D02*
X145614285Y-102440533D01*
X145614285Y-102440533D02*
X145566666Y-102583390D01*
X145566666Y-102583390D02*
X144995238Y-103154819D01*
X144995238Y-103154819D02*
X145614285Y-103154819D01*
X131679300Y-102154819D02*
X131679300Y-102392914D01*
X131441205Y-102297676D02*
X131679300Y-102392914D01*
X131679300Y-102392914D02*
X131917395Y-102297676D01*
X131536443Y-102583390D02*
X131679300Y-102392914D01*
X131679300Y-102392914D02*
X131822157Y-102583390D01*
X188166666Y-118054819D02*
X188166666Y-118769104D01*
X188166666Y-118769104D02*
X188119047Y-118911961D01*
X188119047Y-118911961D02*
X188023809Y-119007200D01*
X188023809Y-119007200D02*
X187880952Y-119054819D01*
X187880952Y-119054819D02*
X187785714Y-119054819D01*
X189119047Y-118054819D02*
X188642857Y-118054819D01*
X188642857Y-118054819D02*
X188595238Y-118531009D01*
X188595238Y-118531009D02*
X188642857Y-118483390D01*
X188642857Y-118483390D02*
X188738095Y-118435771D01*
X188738095Y-118435771D02*
X188976190Y-118435771D01*
X188976190Y-118435771D02*
X189071428Y-118483390D01*
X189071428Y-118483390D02*
X189119047Y-118531009D01*
X189119047Y-118531009D02*
X189166666Y-118626247D01*
X189166666Y-118626247D02*
X189166666Y-118864342D01*
X189166666Y-118864342D02*
X189119047Y-118959580D01*
X189119047Y-118959580D02*
X189071428Y-119007200D01*
X189071428Y-119007200D02*
X188976190Y-119054819D01*
X188976190Y-119054819D02*
X188738095Y-119054819D01*
X188738095Y-119054819D02*
X188642857Y-119007200D01*
X188642857Y-119007200D02*
X188595238Y-118959580D01*
X144566666Y-124631009D02*
X144233333Y-124631009D01*
X144233333Y-125154819D02*
X144233333Y-124154819D01*
X144233333Y-124154819D02*
X144709523Y-124154819D01*
X145519047Y-124488152D02*
X145519047Y-125154819D01*
X145280952Y-124107200D02*
X145042857Y-124821485D01*
X145042857Y-124821485D02*
X145661904Y-124821485D01*
X131679300Y-124154819D02*
X131679300Y-124392914D01*
X131441205Y-124297676D02*
X131679300Y-124392914D01*
X131679300Y-124392914D02*
X131917395Y-124297676D01*
X131536443Y-124583390D02*
X131679300Y-124392914D01*
X131679300Y-124392914D02*
X131822157Y-124583390D01*
X144566666Y-113531009D02*
X144233333Y-113531009D01*
X144233333Y-114054819D02*
X144233333Y-113054819D01*
X144233333Y-113054819D02*
X144709523Y-113054819D01*
X144995238Y-113054819D02*
X145614285Y-113054819D01*
X145614285Y-113054819D02*
X145280952Y-113435771D01*
X145280952Y-113435771D02*
X145423809Y-113435771D01*
X145423809Y-113435771D02*
X145519047Y-113483390D01*
X145519047Y-113483390D02*
X145566666Y-113531009D01*
X145566666Y-113531009D02*
X145614285Y-113626247D01*
X145614285Y-113626247D02*
X145614285Y-113864342D01*
X145614285Y-113864342D02*
X145566666Y-113959580D01*
X145566666Y-113959580D02*
X145519047Y-114007200D01*
X145519047Y-114007200D02*
X145423809Y-114054819D01*
X145423809Y-114054819D02*
X145138095Y-114054819D01*
X145138095Y-114054819D02*
X145042857Y-114007200D01*
X145042857Y-114007200D02*
X144995238Y-113959580D01*
X131679300Y-113054819D02*
X131679300Y-113292914D01*
X131441205Y-113197676D02*
X131679300Y-113292914D01*
X131679300Y-113292914D02*
X131917395Y-113197676D01*
X131536443Y-113483390D02*
X131679300Y-113292914D01*
X131679300Y-113292914D02*
X131822157Y-113483390D01*
X142957142Y-72059580D02*
X142909523Y-72107200D01*
X142909523Y-72107200D02*
X142766666Y-72154819D01*
X142766666Y-72154819D02*
X142671428Y-72154819D01*
X142671428Y-72154819D02*
X142528571Y-72107200D01*
X142528571Y-72107200D02*
X142433333Y-72011961D01*
X142433333Y-72011961D02*
X142385714Y-71916723D01*
X142385714Y-71916723D02*
X142338095Y-71726247D01*
X142338095Y-71726247D02*
X142338095Y-71583390D01*
X142338095Y-71583390D02*
X142385714Y-71392914D01*
X142385714Y-71392914D02*
X142433333Y-71297676D01*
X142433333Y-71297676D02*
X142528571Y-71202438D01*
X142528571Y-71202438D02*
X142671428Y-71154819D01*
X142671428Y-71154819D02*
X142766666Y-71154819D01*
X142766666Y-71154819D02*
X142909523Y-71202438D01*
X142909523Y-71202438D02*
X142957142Y-71250057D01*
X143909523Y-72154819D02*
X143338095Y-72154819D01*
X143623809Y-72154819D02*
X143623809Y-71154819D01*
X143623809Y-71154819D02*
X143528571Y-71297676D01*
X143528571Y-71297676D02*
X143433333Y-71392914D01*
X143433333Y-71392914D02*
X143338095Y-71440533D01*
X144766666Y-71488152D02*
X144766666Y-72154819D01*
X144528571Y-71107200D02*
X144290476Y-71821485D01*
X144290476Y-71821485D02*
X144909523Y-71821485D01*
X132359580Y-72642857D02*
X132407200Y-72690476D01*
X132407200Y-72690476D02*
X132454819Y-72833333D01*
X132454819Y-72833333D02*
X132454819Y-72928571D01*
X132454819Y-72928571D02*
X132407200Y-73071428D01*
X132407200Y-73071428D02*
X132311961Y-73166666D01*
X132311961Y-73166666D02*
X132216723Y-73214285D01*
X132216723Y-73214285D02*
X132026247Y-73261904D01*
X132026247Y-73261904D02*
X131883390Y-73261904D01*
X131883390Y-73261904D02*
X131692914Y-73214285D01*
X131692914Y-73214285D02*
X131597676Y-73166666D01*
X131597676Y-73166666D02*
X131502438Y-73071428D01*
X131502438Y-73071428D02*
X131454819Y-72928571D01*
X131454819Y-72928571D02*
X131454819Y-72833333D01*
X131454819Y-72833333D02*
X131502438Y-72690476D01*
X131502438Y-72690476D02*
X131550057Y-72642857D01*
X132454819Y-71690476D02*
X132454819Y-72261904D01*
X132454819Y-71976190D02*
X131454819Y-71976190D01*
X131454819Y-71976190D02*
X131597676Y-72071428D01*
X131597676Y-72071428D02*
X131692914Y-72166666D01*
X131692914Y-72166666D02*
X131740533Y-72261904D01*
X131454819Y-71357142D02*
X131454819Y-70738095D01*
X131454819Y-70738095D02*
X131835771Y-71071428D01*
X131835771Y-71071428D02*
X131835771Y-70928571D01*
X131835771Y-70928571D02*
X131883390Y-70833333D01*
X131883390Y-70833333D02*
X131931009Y-70785714D01*
X131931009Y-70785714D02*
X132026247Y-70738095D01*
X132026247Y-70738095D02*
X132264342Y-70738095D01*
X132264342Y-70738095D02*
X132359580Y-70785714D01*
X132359580Y-70785714D02*
X132407200Y-70833333D01*
X132407200Y-70833333D02*
X132454819Y-70928571D01*
X132454819Y-70928571D02*
X132454819Y-71214285D01*
X132454819Y-71214285D02*
X132407200Y-71309523D01*
X132407200Y-71309523D02*
X132359580Y-71357142D01*
X144666666Y-92131009D02*
X144333333Y-92131009D01*
X144333333Y-92654819D02*
X144333333Y-91654819D01*
X144333333Y-91654819D02*
X144809523Y-91654819D01*
X145714285Y-92654819D02*
X145142857Y-92654819D01*
X145428571Y-92654819D02*
X145428571Y-91654819D01*
X145428571Y-91654819D02*
X145333333Y-91797676D01*
X145333333Y-91797676D02*
X145238095Y-91892914D01*
X145238095Y-91892914D02*
X145142857Y-91940533D01*
X131600000Y-91354819D02*
X131600000Y-91592914D01*
X131361905Y-91497676D02*
X131600000Y-91592914D01*
X131600000Y-91592914D02*
X131838095Y-91497676D01*
X131457143Y-91783390D02*
X131600000Y-91592914D01*
X131600000Y-91592914D02*
X131742857Y-91783390D01*
X184638095Y-81154819D02*
X185209523Y-81154819D01*
X184923809Y-82154819D02*
X184923809Y-81154819D01*
X185542857Y-82154819D02*
X185542857Y-81154819D01*
X185542857Y-81154819D02*
X185923809Y-81154819D01*
X185923809Y-81154819D02*
X186019047Y-81202438D01*
X186019047Y-81202438D02*
X186066666Y-81250057D01*
X186066666Y-81250057D02*
X186114285Y-81345295D01*
X186114285Y-81345295D02*
X186114285Y-81488152D01*
X186114285Y-81488152D02*
X186066666Y-81583390D01*
X186066666Y-81583390D02*
X186019047Y-81631009D01*
X186019047Y-81631009D02*
X185923809Y-81678628D01*
X185923809Y-81678628D02*
X185542857Y-81678628D01*
X187066666Y-82154819D02*
X186495238Y-82154819D01*
X186780952Y-82154819D02*
X186780952Y-81154819D01*
X186780952Y-81154819D02*
X186685714Y-81297676D01*
X186685714Y-81297676D02*
X186590476Y-81392914D01*
X186590476Y-81392914D02*
X186495238Y-81440533D01*
X111266666Y-117054819D02*
X111266666Y-117769104D01*
X111266666Y-117769104D02*
X111219047Y-117911961D01*
X111219047Y-117911961D02*
X111123809Y-118007200D01*
X111123809Y-118007200D02*
X110980952Y-118054819D01*
X110980952Y-118054819D02*
X110885714Y-118054819D01*
X112171428Y-117388152D02*
X112171428Y-118054819D01*
X111933333Y-117007200D02*
X111695238Y-117721485D01*
X111695238Y-117721485D02*
X112314285Y-117721485D01*
X144154819Y-75961904D02*
X144964342Y-75961904D01*
X144964342Y-75961904D02*
X145059580Y-75914285D01*
X145059580Y-75914285D02*
X145107200Y-75866666D01*
X145107200Y-75866666D02*
X145154819Y-75771428D01*
X145154819Y-75771428D02*
X145154819Y-75580952D01*
X145154819Y-75580952D02*
X145107200Y-75485714D01*
X145107200Y-75485714D02*
X145059580Y-75438095D01*
X145059580Y-75438095D02*
X144964342Y-75390476D01*
X144964342Y-75390476D02*
X144154819Y-75390476D01*
X144154819Y-74438095D02*
X144154819Y-74914285D01*
X144154819Y-74914285D02*
X144631009Y-74961904D01*
X144631009Y-74961904D02*
X144583390Y-74914285D01*
X144583390Y-74914285D02*
X144535771Y-74819047D01*
X144535771Y-74819047D02*
X144535771Y-74580952D01*
X144535771Y-74580952D02*
X144583390Y-74485714D01*
X144583390Y-74485714D02*
X144631009Y-74438095D01*
X144631009Y-74438095D02*
X144726247Y-74390476D01*
X144726247Y-74390476D02*
X144964342Y-74390476D01*
X144964342Y-74390476D02*
X145059580Y-74438095D01*
X145059580Y-74438095D02*
X145107200Y-74485714D01*
X145107200Y-74485714D02*
X145154819Y-74580952D01*
X145154819Y-74580952D02*
X145154819Y-74819047D01*
X145154819Y-74819047D02*
X145107200Y-74914285D01*
X145107200Y-74914285D02*
X145059580Y-74961904D01*
D12*
%TO.C,J2*%
X147500000Y-70050000D02*
X147500000Y-78300000D01*
X177500000Y-70050000D02*
X147500000Y-70050000D01*
X177500000Y-70050000D02*
X177500000Y-78300000D01*
X177500000Y-78300000D02*
X147500000Y-78300000D01*
D13*
X178350000Y-74300000D02*
G75*
G02*
X178150000Y-74300000I-100000J0D01*
G01*
X178150000Y-74300000D02*
G75*
G02*
X178350000Y-74300000I100000J0D01*
G01*
D14*
%TO.C,H5*%
G36*
X159499244Y-124226373D02*
G01*
X159499244Y-124496771D01*
X159228846Y-124496771D01*
X158958447Y-124496771D01*
X158958447Y-124226373D01*
X158958447Y-123955975D01*
X159228846Y-123955975D01*
X159499244Y-123955975D01*
X159499244Y-124226373D01*
G37*
G36*
X160580837Y-112869642D02*
G01*
X160580837Y-113680837D01*
X159769642Y-113680837D01*
X158958447Y-113680837D01*
X158958447Y-112869642D01*
X158958447Y-112058447D01*
X159769642Y-112058447D01*
X160580837Y-112058447D01*
X160580837Y-112869642D01*
G37*
G36*
X160580837Y-126930357D02*
G01*
X160580837Y-127741552D01*
X159769642Y-127741552D01*
X158958447Y-127741552D01*
X158958447Y-126930357D01*
X158958447Y-126119162D01*
X159769642Y-126119162D01*
X160580837Y-126119162D01*
X160580837Y-126930357D01*
G37*
G36*
X161662431Y-122063186D02*
G01*
X161662431Y-122333585D01*
X161392032Y-122333585D01*
X161121634Y-122333585D01*
X161121634Y-122063186D01*
X161121634Y-121792788D01*
X161392032Y-121792788D01*
X161662431Y-121792788D01*
X161662431Y-122063186D01*
G37*
G36*
X161662431Y-124226373D02*
G01*
X161662431Y-124496771D01*
X161392032Y-124496771D01*
X161121634Y-124496771D01*
X161121634Y-124226373D01*
X161121634Y-123955975D01*
X161392032Y-123955975D01*
X161662431Y-123955975D01*
X161662431Y-124226373D01*
G37*
G36*
X162744024Y-125848763D02*
G01*
X162744024Y-126119162D01*
X162473626Y-126119162D01*
X162203228Y-126119162D01*
X162203228Y-125848763D01*
X162203228Y-125578365D01*
X162473626Y-125578365D01*
X162744024Y-125578365D01*
X162744024Y-125848763D01*
G37*
G36*
X162744024Y-126930357D02*
G01*
X162744024Y-127200755D01*
X162473626Y-127200755D01*
X162203228Y-127200755D01*
X162203228Y-126930357D01*
X162203228Y-126659958D01*
X162473626Y-126659958D01*
X162744024Y-126659958D01*
X162744024Y-126930357D01*
G37*
G36*
X162744024Y-128552747D02*
G01*
X162744024Y-128823145D01*
X162473626Y-128823145D01*
X162203228Y-128823145D01*
X162203228Y-128552747D01*
X162203228Y-128282348D01*
X162473626Y-128282348D01*
X162744024Y-128282348D01*
X162744024Y-128552747D01*
G37*
G36*
X163284821Y-124767170D02*
G01*
X163284821Y-125037568D01*
X162744024Y-125037568D01*
X162203228Y-125037568D01*
X162203228Y-124767170D01*
X162203228Y-124496771D01*
X162744024Y-124496771D01*
X163284821Y-124496771D01*
X163284821Y-124767170D01*
G37*
G36*
X164907211Y-114492032D02*
G01*
X164907211Y-114762431D01*
X164636813Y-114762431D01*
X164366414Y-114762431D01*
X164366414Y-114492032D01*
X164366414Y-114221634D01*
X164636813Y-114221634D01*
X164907211Y-114221634D01*
X164907211Y-114492032D01*
G37*
G36*
X165448008Y-123144780D02*
G01*
X165448008Y-123415178D01*
X165177609Y-123415178D01*
X164907211Y-123415178D01*
X164907211Y-123144780D01*
X164907211Y-122874381D01*
X165177609Y-122874381D01*
X165448008Y-122874381D01*
X165448008Y-123144780D01*
G37*
G36*
X165988804Y-117196016D02*
G01*
X165988804Y-117466414D01*
X165718406Y-117466414D01*
X165448008Y-117466414D01*
X165448008Y-117196016D01*
X165448008Y-116925618D01*
X165718406Y-116925618D01*
X165988804Y-116925618D01*
X165988804Y-117196016D01*
G37*
G36*
X166529601Y-125848763D02*
G01*
X166529601Y-126119162D01*
X166259203Y-126119162D01*
X165988804Y-126119162D01*
X165988804Y-125848763D01*
X165988804Y-125578365D01*
X166259203Y-125578365D01*
X166529601Y-125578365D01*
X166529601Y-125848763D01*
G37*
G36*
X167611195Y-123144780D02*
G01*
X167611195Y-123415178D01*
X167340796Y-123415178D01*
X167070398Y-123415178D01*
X167070398Y-123144780D01*
X167070398Y-122874381D01*
X167340796Y-122874381D01*
X167611195Y-122874381D01*
X167611195Y-123144780D01*
G37*
G36*
X168151991Y-123685576D02*
G01*
X168151991Y-123955975D01*
X167881593Y-123955975D01*
X167611195Y-123955975D01*
X167611195Y-123685576D01*
X167611195Y-123415178D01*
X167881593Y-123415178D01*
X168151991Y-123415178D01*
X168151991Y-123685576D01*
G37*
G36*
X168692788Y-117736813D02*
G01*
X168692788Y-118007211D01*
X168422390Y-118007211D01*
X168151991Y-118007211D01*
X168151991Y-117736813D01*
X168151991Y-117466414D01*
X168422390Y-117466414D01*
X168692788Y-117466414D01*
X168692788Y-117736813D01*
G37*
G36*
X169774381Y-125307967D02*
G01*
X169774381Y-125578365D01*
X169503983Y-125578365D01*
X169233585Y-125578365D01*
X169233585Y-125307967D01*
X169233585Y-125037568D01*
X169503983Y-125037568D01*
X169774381Y-125037568D01*
X169774381Y-125307967D01*
G37*
G36*
X169774381Y-128282348D02*
G01*
X169774381Y-128823145D01*
X169503983Y-128823145D01*
X169233585Y-128823145D01*
X169233585Y-128282348D01*
X169233585Y-127741552D01*
X169503983Y-127741552D01*
X169774381Y-127741552D01*
X169774381Y-128282348D01*
G37*
G36*
X171396771Y-114762431D02*
G01*
X171396771Y-115303228D01*
X171126373Y-115303228D01*
X170855975Y-115303228D01*
X170855975Y-114762431D01*
X170855975Y-114221634D01*
X171126373Y-114221634D01*
X171396771Y-114221634D01*
X171396771Y-114762431D01*
G37*
G36*
X172478365Y-125307967D02*
G01*
X172478365Y-125578365D01*
X172207967Y-125578365D01*
X171937568Y-125578365D01*
X171937568Y-125307967D01*
X171937568Y-125037568D01*
X172207967Y-125037568D01*
X172478365Y-125037568D01*
X172478365Y-125307967D01*
G37*
G36*
X172478365Y-128552747D02*
G01*
X172478365Y-128823145D01*
X172207967Y-128823145D01*
X171937568Y-128823145D01*
X171937568Y-128552747D01*
X171937568Y-128282348D01*
X172207967Y-128282348D01*
X172478365Y-128282348D01*
X172478365Y-128552747D01*
G37*
G36*
X173019162Y-121522390D02*
G01*
X173019162Y-121792788D01*
X172748763Y-121792788D01*
X172478365Y-121792788D01*
X172478365Y-121522390D01*
X172478365Y-121251991D01*
X172748763Y-121251991D01*
X173019162Y-121251991D01*
X173019162Y-121522390D01*
G37*
G36*
X174641552Y-112869642D02*
G01*
X174641552Y-113680837D01*
X173830357Y-113680837D01*
X173019162Y-113680837D01*
X173019162Y-112869642D01*
X173019162Y-112058447D01*
X173830357Y-112058447D01*
X174641552Y-112058447D01*
X174641552Y-112869642D01*
G37*
G36*
X175182348Y-128552747D02*
G01*
X175182348Y-128823145D01*
X174100755Y-128823145D01*
X173019162Y-128823145D01*
X173019162Y-128552747D01*
X173019162Y-128282348D01*
X174100755Y-128282348D01*
X175182348Y-128282348D01*
X175182348Y-128552747D01*
G37*
G36*
X175723145Y-127471153D02*
G01*
X175723145Y-127741552D01*
X175452747Y-127741552D01*
X175182348Y-127741552D01*
X175182348Y-127471153D01*
X175182348Y-127200755D01*
X175452747Y-127200755D01*
X175723145Y-127200755D01*
X175723145Y-127471153D01*
G37*
G36*
X161662431Y-112869642D02*
G01*
X161662431Y-114762431D01*
X159769642Y-114762431D01*
X157876854Y-114762431D01*
X157876854Y-114186744D01*
X158452541Y-114186744D01*
X159769642Y-114186744D01*
X161086744Y-114186744D01*
X161086744Y-112869642D01*
X161086744Y-111552541D01*
X159769642Y-111552541D01*
X158452541Y-111552541D01*
X158452541Y-112869642D01*
X158452541Y-114186744D01*
X157876854Y-114186744D01*
X157876854Y-112869642D01*
X157876854Y-110976854D01*
X159769642Y-110976854D01*
X161662431Y-110976854D01*
X161662431Y-112869642D01*
G37*
G36*
X161662431Y-126930357D02*
G01*
X161662431Y-128823145D01*
X159769642Y-128823145D01*
X157876854Y-128823145D01*
X157876854Y-128247458D01*
X158452541Y-128247458D01*
X159769642Y-128247458D01*
X161086744Y-128247458D01*
X161086744Y-126930357D01*
X161086744Y-125613255D01*
X159769642Y-125613255D01*
X158452541Y-125613255D01*
X158452541Y-126930357D01*
X158452541Y-128247458D01*
X157876854Y-128247458D01*
X157876854Y-126930357D01*
X157876854Y-125037568D01*
X159769642Y-125037568D01*
X161662431Y-125037568D01*
X161662431Y-126930357D01*
G37*
G36*
X175723145Y-112869642D02*
G01*
X175723145Y-114762431D01*
X173830357Y-114762431D01*
X171937568Y-114762431D01*
X171937568Y-114186744D01*
X172513255Y-114186744D01*
X173830357Y-114186744D01*
X175147458Y-114186744D01*
X175147458Y-112869642D01*
X175147458Y-111552541D01*
X173830357Y-111552541D01*
X172513255Y-111552541D01*
X172513255Y-112869642D01*
X172513255Y-114186744D01*
X171937568Y-114186744D01*
X171937568Y-112869642D01*
X171937568Y-110976854D01*
X173830357Y-110976854D01*
X175723145Y-110976854D01*
X175723145Y-112869642D01*
G37*
G36*
X164366414Y-119359203D02*
G01*
X164366414Y-119629601D01*
X164636813Y-119629601D01*
X164907211Y-119629601D01*
X164907211Y-119900000D01*
X164907211Y-120170398D01*
X165177609Y-120170398D01*
X165448008Y-120170398D01*
X165448008Y-120440796D01*
X165448008Y-120711195D01*
X165718406Y-120711195D01*
X165988804Y-120711195D01*
X165988804Y-120981593D01*
X165988804Y-121251991D01*
X166259203Y-121251991D01*
X166529601Y-121251991D01*
X166529601Y-120711195D01*
X166529601Y-120170398D01*
X166800000Y-120170398D01*
X167070398Y-120170398D01*
X167070398Y-120711195D01*
X167070398Y-121251991D01*
X166800000Y-121251991D01*
X166529601Y-121251991D01*
X166529601Y-121522390D01*
X166529601Y-121792788D01*
X166259203Y-121792788D01*
X165988804Y-121792788D01*
X165988804Y-121522390D01*
X165988804Y-121251991D01*
X165718406Y-121251991D01*
X165448008Y-121251991D01*
X165448008Y-121792788D01*
X165448008Y-122333585D01*
X164907211Y-122333585D01*
X164366414Y-122333585D01*
X164366414Y-121792788D01*
X164366414Y-121251991D01*
X164636813Y-121251991D01*
X164907211Y-121251991D01*
X164907211Y-120981593D01*
X164907211Y-120711195D01*
X164636813Y-120711195D01*
X164366414Y-120711195D01*
X164366414Y-120440796D01*
X164366414Y-120170398D01*
X164096016Y-120170398D01*
X163825618Y-120170398D01*
X163825618Y-119629601D01*
X163825618Y-119088804D01*
X164096016Y-119088804D01*
X164366414Y-119088804D01*
X164366414Y-119359203D01*
G37*
G36*
X164907211Y-123685576D02*
G01*
X164907211Y-123955975D01*
X164636813Y-123955975D01*
X164366414Y-123955975D01*
X164366414Y-124226373D01*
X164366414Y-124496771D01*
X164907211Y-124496771D01*
X165448008Y-124496771D01*
X165448008Y-123955975D01*
X165448008Y-123415178D01*
X165718406Y-123415178D01*
X165988804Y-123415178D01*
X165988804Y-123685576D01*
X165988804Y-123955975D01*
X166259203Y-123955975D01*
X166529601Y-123955975D01*
X166529601Y-123685576D01*
X166529601Y-123415178D01*
X166800000Y-123415178D01*
X167070398Y-123415178D01*
X167070398Y-123685576D01*
X167070398Y-123955975D01*
X166800000Y-123955975D01*
X166529601Y-123955975D01*
X166529601Y-124226373D01*
X166529601Y-124496771D01*
X165988804Y-124496771D01*
X165448008Y-124496771D01*
X165448008Y-124767170D01*
X165448008Y-125037568D01*
X165718406Y-125037568D01*
X165988804Y-125037568D01*
X165988804Y-125307967D01*
X165988804Y-125578365D01*
X165177609Y-125578365D01*
X164366414Y-125578365D01*
X164366414Y-126389560D01*
X164366414Y-127200755D01*
X164636813Y-127200755D01*
X164907211Y-127200755D01*
X164907211Y-126659958D01*
X164907211Y-126119162D01*
X165177609Y-126119162D01*
X165448008Y-126119162D01*
X165448008Y-126389560D01*
X165448008Y-126659958D01*
X165988804Y-126659958D01*
X166529601Y-126659958D01*
X166529601Y-126389560D01*
X166529601Y-126119162D01*
X166800000Y-126119162D01*
X167070398Y-126119162D01*
X167070398Y-126389560D01*
X167070398Y-126659958D01*
X166800000Y-126659958D01*
X166529601Y-126659958D01*
X166529601Y-126930357D01*
X166529601Y-127200755D01*
X165718406Y-127200755D01*
X164907211Y-127200755D01*
X164907211Y-127471153D01*
X164907211Y-127741552D01*
X165177609Y-127741552D01*
X165448008Y-127741552D01*
X165448008Y-128011950D01*
X165448008Y-128282348D01*
X165718406Y-128282348D01*
X165988804Y-128282348D01*
X165988804Y-128011950D01*
X165988804Y-127741552D01*
X166529601Y-127741552D01*
X167070398Y-127741552D01*
X167070398Y-127471153D01*
X167070398Y-127200755D01*
X167340796Y-127200755D01*
X167611195Y-127200755D01*
X167611195Y-127471153D01*
X167611195Y-127741552D01*
X167881593Y-127741552D01*
X168151991Y-127741552D01*
X168151991Y-128011950D01*
X168151991Y-128282348D01*
X167611195Y-128282348D01*
X167070398Y-128282348D01*
X167070398Y-128552747D01*
X167070398Y-128823145D01*
X166800000Y-128823145D01*
X166529601Y-128823145D01*
X166529601Y-128552747D01*
X166529601Y-128282348D01*
X166259203Y-128282348D01*
X165988804Y-128282348D01*
X165988804Y-128552747D01*
X165988804Y-128823145D01*
X165448008Y-128823145D01*
X164907211Y-128823145D01*
X164907211Y-128552747D01*
X164907211Y-128282348D01*
X164636813Y-128282348D01*
X164366414Y-128282348D01*
X164366414Y-127741552D01*
X164366414Y-127200755D01*
X163825618Y-127200755D01*
X163284821Y-127200755D01*
X163284821Y-126930357D01*
X163284821Y-126659958D01*
X163555219Y-126659958D01*
X163825618Y-126659958D01*
X163825618Y-126119162D01*
X163825618Y-125578365D01*
X164096016Y-125578365D01*
X164366414Y-125578365D01*
X164366414Y-125037568D01*
X164366414Y-124496771D01*
X164096016Y-124496771D01*
X163825618Y-124496771D01*
X163825618Y-124226373D01*
X163825618Y-123955975D01*
X164096016Y-123955975D01*
X164366414Y-123955975D01*
X164366414Y-123685576D01*
X164366414Y-123415178D01*
X164636813Y-123415178D01*
X164907211Y-123415178D01*
X164907211Y-123685576D01*
G37*
G36*
X164907211Y-111247252D02*
G01*
X164907211Y-111517651D01*
X164366414Y-111517651D01*
X163825618Y-111517651D01*
X163825618Y-112058447D01*
X163825618Y-112599244D01*
X163555219Y-112599244D01*
X163284821Y-112599244D01*
X163284821Y-112869642D01*
X163284821Y-113140041D01*
X163555219Y-113140041D01*
X163825618Y-113140041D01*
X163825618Y-112869642D01*
X163825618Y-112599244D01*
X164096016Y-112599244D01*
X164366414Y-112599244D01*
X164366414Y-112869642D01*
X164366414Y-113140041D01*
X164636813Y-113140041D01*
X164907211Y-113140041D01*
X164907211Y-112869642D01*
X164907211Y-112599244D01*
X165177609Y-112599244D01*
X165448008Y-112599244D01*
X165448008Y-112328846D01*
X165448008Y-112058447D01*
X165718406Y-112058447D01*
X165988804Y-112058447D01*
X165988804Y-111517651D01*
X165988804Y-110976854D01*
X166529601Y-110976854D01*
X167070398Y-110976854D01*
X167070398Y-111247252D01*
X167070398Y-111517651D01*
X167340796Y-111517651D01*
X167611195Y-111517651D01*
X167611195Y-111247252D01*
X167611195Y-110976854D01*
X168151991Y-110976854D01*
X168692788Y-110976854D01*
X168692788Y-111247252D01*
X168692788Y-111517651D01*
X169233585Y-111517651D01*
X169774381Y-111517651D01*
X169774381Y-111247252D01*
X169774381Y-110976854D01*
X170315178Y-110976854D01*
X170855975Y-110976854D01*
X170855975Y-111247252D01*
X170855975Y-111517651D01*
X171126373Y-111517651D01*
X171396771Y-111517651D01*
X171396771Y-112058447D01*
X171396771Y-112599244D01*
X170855975Y-112599244D01*
X170315178Y-112599244D01*
X170315178Y-112328846D01*
X170315178Y-112058447D01*
X169503983Y-112058447D01*
X168692788Y-112058447D01*
X168692788Y-112869642D01*
X168692788Y-113680837D01*
X168963186Y-113680837D01*
X169233585Y-113680837D01*
X169233585Y-113140041D01*
X169233585Y-112599244D01*
X169503983Y-112599244D01*
X169774381Y-112599244D01*
X169774381Y-112869642D01*
X169774381Y-113140041D01*
X170044780Y-113140041D01*
X170315178Y-113140041D01*
X170315178Y-113410439D01*
X170315178Y-113680837D01*
X170585576Y-113680837D01*
X170855975Y-113680837D01*
X170855975Y-113951236D01*
X170855975Y-114221634D01*
X170585576Y-114221634D01*
X170315178Y-114221634D01*
X170315178Y-114492032D01*
X170315178Y-114762431D01*
X170044780Y-114762431D01*
X169774381Y-114762431D01*
X169774381Y-114221634D01*
X169774381Y-113680837D01*
X169503983Y-113680837D01*
X169233585Y-113680837D01*
X169233585Y-114221634D01*
X169233585Y-114762431D01*
X169503983Y-114762431D01*
X169774381Y-114762431D01*
X169774381Y-115303228D01*
X169774381Y-115844024D01*
X169503983Y-115844024D01*
X169233585Y-115844024D01*
X169233585Y-115573626D01*
X169233585Y-115303228D01*
X168963186Y-115303228D01*
X168692788Y-115303228D01*
X168692788Y-115573626D01*
X168692788Y-115844024D01*
X168422390Y-115844024D01*
X168151991Y-115844024D01*
X168151991Y-115573626D01*
X168151991Y-115303228D01*
X167611195Y-115303228D01*
X167070398Y-115303228D01*
X167070398Y-115844024D01*
X167070398Y-116384821D01*
X167340796Y-116384821D01*
X167611195Y-116384821D01*
X167611195Y-116925618D01*
X167611195Y-117466414D01*
X167340796Y-117466414D01*
X167070398Y-117466414D01*
X167070398Y-117196016D01*
X167070398Y-116925618D01*
X166800000Y-116925618D01*
X166529601Y-116925618D01*
X166529601Y-116384821D01*
X166529601Y-115844024D01*
X166259203Y-115844024D01*
X165988804Y-115844024D01*
X165988804Y-116114423D01*
X165988804Y-116384821D01*
X165718406Y-116384821D01*
X165448008Y-116384821D01*
X165448008Y-116114423D01*
X165448008Y-115844024D01*
X165177609Y-115844024D01*
X164907211Y-115844024D01*
X164907211Y-116655219D01*
X164907211Y-117466414D01*
X164366414Y-117466414D01*
X163825618Y-117466414D01*
X163825618Y-116925618D01*
X163825618Y-116384821D01*
X164096016Y-116384821D01*
X164366414Y-116384821D01*
X164366414Y-116114423D01*
X164366414Y-115844024D01*
X164096016Y-115844024D01*
X163825618Y-115844024D01*
X163825618Y-116114423D01*
X163825618Y-116384821D01*
X163555219Y-116384821D01*
X163284821Y-116384821D01*
X163284821Y-116114423D01*
X163284821Y-115844024D01*
X163555219Y-115844024D01*
X163825618Y-115844024D01*
X163825618Y-115573626D01*
X163825618Y-115303228D01*
X164636813Y-115303228D01*
X165448008Y-115303228D01*
X165448008Y-114762431D01*
X165448008Y-114221634D01*
X165718406Y-114221634D01*
X165988804Y-114221634D01*
X165988804Y-114762431D01*
X165988804Y-115303228D01*
X166529601Y-115303228D01*
X167070398Y-115303228D01*
X167070398Y-115032829D01*
X167070398Y-114762431D01*
X167340796Y-114762431D01*
X167611195Y-114762431D01*
X168151991Y-114762431D01*
X168422390Y-114762431D01*
X168692788Y-114762431D01*
X168692788Y-114221634D01*
X168692788Y-113680837D01*
X168422390Y-113680837D01*
X168151991Y-113680837D01*
X168151991Y-114221634D01*
X168151991Y-114762431D01*
X167611195Y-114762431D01*
X167611195Y-114492032D01*
X167611195Y-114221634D01*
X167340796Y-114221634D01*
X167070398Y-114221634D01*
X167070398Y-114492032D01*
X167070398Y-114762431D01*
X166800000Y-114762431D01*
X166529601Y-114762431D01*
X166529601Y-114492032D01*
X166529601Y-114221634D01*
X166800000Y-114221634D01*
X167070398Y-114221634D01*
X167070398Y-113951236D01*
X167070398Y-113680837D01*
X167611195Y-113680837D01*
X167881593Y-113680837D01*
X168151991Y-113680837D01*
X168151991Y-112869642D01*
X168151991Y-112058447D01*
X168422390Y-112058447D01*
X168692788Y-112058447D01*
X168692788Y-111788049D01*
X168692788Y-111517651D01*
X168151991Y-111517651D01*
X167611195Y-111517651D01*
X167611195Y-112599244D01*
X167611195Y-113680837D01*
X167070398Y-113680837D01*
X166800000Y-113680837D01*
X166529601Y-113680837D01*
X166529601Y-113410439D01*
X166529601Y-113140041D01*
X166800000Y-113140041D01*
X167070398Y-113140041D01*
X167070398Y-112869642D01*
X167070398Y-112599244D01*
X166800000Y-112599244D01*
X166529601Y-112599244D01*
X166529601Y-112328846D01*
X166529601Y-112058447D01*
X166259203Y-112058447D01*
X165988804Y-112058447D01*
X165988804Y-112328846D01*
X165988804Y-112599244D01*
X165718406Y-112599244D01*
X165448008Y-112599244D01*
X165448008Y-112869642D01*
X165448008Y-113140041D01*
X165177609Y-113140041D01*
X164907211Y-113140041D01*
X164907211Y-113410439D01*
X164907211Y-113680837D01*
X164366414Y-113680837D01*
X163825618Y-113680837D01*
X163825618Y-114221634D01*
X163825618Y-114762431D01*
X163555219Y-114762431D01*
X163284821Y-114762431D01*
X163284821Y-114221634D01*
X163284821Y-113680837D01*
X163014423Y-113680837D01*
X162744024Y-113680837D01*
X162744024Y-114221634D01*
X162744024Y-114762431D01*
X162473626Y-114762431D01*
X162203228Y-114762431D01*
X162203228Y-114221634D01*
X162203228Y-113680837D01*
X162473626Y-113680837D01*
X162744024Y-113680837D01*
X162744024Y-112869642D01*
X162744024Y-112058447D01*
X163014423Y-112058447D01*
X163284821Y-112058447D01*
X163284821Y-111788049D01*
X163284821Y-111517651D01*
X163014423Y-111517651D01*
X162744024Y-111517651D01*
X162744024Y-111247252D01*
X162744024Y-110976854D01*
X163825618Y-110976854D01*
X164907211Y-110976854D01*
X164907211Y-111247252D01*
G37*
G36*
X158417651Y-115573626D02*
G01*
X158417651Y-115844024D01*
X158958447Y-115844024D01*
X159499244Y-115844024D01*
X159499244Y-115573626D01*
X159499244Y-115303228D01*
X159769642Y-115303228D01*
X160040041Y-115303228D01*
X160040041Y-115844024D01*
X160040041Y-116384821D01*
X160310439Y-116384821D01*
X160580837Y-116384821D01*
X160580837Y-116655219D01*
X160580837Y-116925618D01*
X160851236Y-116925618D01*
X161121634Y-116925618D01*
X161121634Y-116655219D01*
X161121634Y-116384821D01*
X161392032Y-116384821D01*
X161662431Y-116384821D01*
X161662431Y-116114423D01*
X161662431Y-115844024D01*
X161121634Y-115844024D01*
X160580837Y-115844024D01*
X160580837Y-115573626D01*
X160580837Y-115303228D01*
X161121634Y-115303228D01*
X161662431Y-115303228D01*
X161662431Y-115573626D01*
X161662431Y-115844024D01*
X161932829Y-115844024D01*
X162203228Y-115844024D01*
X162203228Y-115573626D01*
X162203228Y-115303228D01*
X162473626Y-115303228D01*
X162744024Y-115303228D01*
X162744024Y-115844024D01*
X162744024Y-116384821D01*
X162203228Y-116384821D01*
X161662431Y-116384821D01*
X161662431Y-116655219D01*
X161662431Y-116925618D01*
X161392032Y-116925618D01*
X161121634Y-116925618D01*
X161121634Y-117196016D01*
X161121634Y-117466414D01*
X161662431Y-117466414D01*
X162203228Y-117466414D01*
X162203228Y-117196016D01*
X162203228Y-116925618D01*
X162473626Y-116925618D01*
X162744024Y-116925618D01*
X162744024Y-117196016D01*
X162744024Y-117466414D01*
X162473626Y-117466414D01*
X162203228Y-117466414D01*
X162203228Y-118007211D01*
X162203228Y-118548008D01*
X162473626Y-118548008D01*
X162744024Y-118548008D01*
X162744024Y-118277609D01*
X162744024Y-118007211D01*
X164096016Y-118007211D01*
X165448008Y-118007211D01*
X165448008Y-118277609D01*
X165448008Y-118548008D01*
X165718406Y-118548008D01*
X165988804Y-118548008D01*
X165988804Y-118277609D01*
X165988804Y-118007211D01*
X166529601Y-118007211D01*
X167070398Y-118007211D01*
X167070398Y-118277609D01*
X167070398Y-118548008D01*
X166529601Y-118548008D01*
X165988804Y-118548008D01*
X165988804Y-118818406D01*
X165988804Y-119088804D01*
X166259203Y-119088804D01*
X166529601Y-119088804D01*
X166529601Y-119359203D01*
X166529601Y-119629601D01*
X165988804Y-119629601D01*
X165448008Y-119629601D01*
X165448008Y-119088804D01*
X165448008Y-118548008D01*
X165177609Y-118548008D01*
X164907211Y-118548008D01*
X164907211Y-118818406D01*
X164907211Y-119088804D01*
X164636813Y-119088804D01*
X164366414Y-119088804D01*
X164366414Y-118818406D01*
X164366414Y-118548008D01*
X164096016Y-118548008D01*
X163825618Y-118548008D01*
X163825618Y-118818406D01*
X163825618Y-119088804D01*
X163284821Y-119088804D01*
X162744024Y-119088804D01*
X162744024Y-119359203D01*
X162744024Y-119629601D01*
X163014423Y-119629601D01*
X163284821Y-119629601D01*
X163284821Y-119900000D01*
X163284821Y-120170398D01*
X163014423Y-120170398D01*
X162744024Y-120170398D01*
X162744024Y-120440796D01*
X162744024Y-120711195D01*
X163014423Y-120711195D01*
X163284821Y-120711195D01*
X163284821Y-120440796D01*
X163284821Y-120170398D01*
X163555219Y-120170398D01*
X163825618Y-120170398D01*
X163825618Y-120440796D01*
X163825618Y-120711195D01*
X164096016Y-120711195D01*
X164366414Y-120711195D01*
X164366414Y-120981593D01*
X164366414Y-121251991D01*
X164096016Y-121251991D01*
X163825618Y-121251991D01*
X163825618Y-121792788D01*
X163825618Y-122333585D01*
X163555219Y-122333585D01*
X163284821Y-122333585D01*
X163284821Y-122603983D01*
X163284821Y-122874381D01*
X163555219Y-122874381D01*
X163825618Y-122874381D01*
X163825618Y-122603983D01*
X163825618Y-122333585D01*
X164096016Y-122333585D01*
X164366414Y-122333585D01*
X164366414Y-122874381D01*
X164366414Y-123415178D01*
X162744024Y-123415178D01*
X161121634Y-123415178D01*
X161121634Y-123144780D01*
X161121634Y-122874381D01*
X161392032Y-122874381D01*
X161662431Y-122874381D01*
X161662431Y-122603983D01*
X161662431Y-122333585D01*
X161932829Y-122333585D01*
X162203228Y-122333585D01*
X162203228Y-122603983D01*
X162203228Y-122874381D01*
X162473626Y-122874381D01*
X162744024Y-122874381D01*
X162744024Y-122333585D01*
X162744024Y-121792788D01*
X163014423Y-121792788D01*
X163284821Y-121792788D01*
X163284821Y-121522390D01*
X163284821Y-121251991D01*
X162744024Y-121251991D01*
X162203228Y-121251991D01*
X162203228Y-121522390D01*
X162203228Y-121792788D01*
X161932829Y-121792788D01*
X161662431Y-121792788D01*
X161662431Y-121522390D01*
X161662431Y-121251991D01*
X161392032Y-121251991D01*
X161121634Y-121251991D01*
X161121634Y-121522390D01*
X161121634Y-121792788D01*
X160851236Y-121792788D01*
X160580837Y-121792788D01*
X160580837Y-122063186D01*
X160580837Y-122333585D01*
X160310439Y-122333585D01*
X160040041Y-122333585D01*
X160040041Y-122874381D01*
X160040041Y-123415178D01*
X159769642Y-123415178D01*
X159499244Y-123415178D01*
X159499244Y-123144780D01*
X159499244Y-122874381D01*
X159228846Y-122874381D01*
X158958447Y-122874381D01*
X158958447Y-123415178D01*
X158958447Y-123955975D01*
X158688049Y-123955975D01*
X158417651Y-123955975D01*
X158417651Y-124226373D01*
X158417651Y-124496771D01*
X158147252Y-124496771D01*
X157876854Y-124496771D01*
X157876854Y-124226373D01*
X157876854Y-123955975D01*
X158147252Y-123955975D01*
X158417651Y-123955975D01*
X158417651Y-123685576D01*
X158417651Y-123415178D01*
X158147252Y-123415178D01*
X157876854Y-123415178D01*
X157876854Y-123144780D01*
X157876854Y-122874381D01*
X158417651Y-122874381D01*
X158958447Y-122874381D01*
X158958447Y-122603983D01*
X158958447Y-122333585D01*
X159228846Y-122333585D01*
X159499244Y-122333585D01*
X159499244Y-122063186D01*
X159499244Y-121792788D01*
X158688049Y-121792788D01*
X157876854Y-121792788D01*
X157876854Y-120981593D01*
X158417651Y-120981593D01*
X158417651Y-121251991D01*
X158958447Y-121251991D01*
X159499244Y-121251991D01*
X159499244Y-121522390D01*
X159499244Y-121792788D01*
X159769642Y-121792788D01*
X160040041Y-121792788D01*
X160040041Y-121251991D01*
X160040041Y-120711195D01*
X159769642Y-120711195D01*
X159499244Y-120711195D01*
X159499244Y-120440796D01*
X159499244Y-120170398D01*
X159228846Y-120170398D01*
X158958447Y-120170398D01*
X158958447Y-120440796D01*
X158958447Y-120711195D01*
X158688049Y-120711195D01*
X158417651Y-120711195D01*
X158417651Y-120981593D01*
X157876854Y-120981593D01*
X157876854Y-120711195D01*
X157876854Y-120170398D01*
X157876854Y-118548008D01*
X158147252Y-118548008D01*
X158417651Y-118548008D01*
X158417651Y-118007211D01*
X158417651Y-117466414D01*
X158147252Y-117466414D01*
X157876854Y-117466414D01*
X157876854Y-116925618D01*
X158417651Y-116925618D01*
X158688049Y-116925618D01*
X158958447Y-116925618D01*
X158958447Y-117196016D01*
X158958447Y-117466414D01*
X159228846Y-117466414D01*
X159499244Y-117466414D01*
X159499244Y-118007211D01*
X159499244Y-118548008D01*
X158958447Y-118548008D01*
X158417651Y-118548008D01*
X158417651Y-119088804D01*
X158417651Y-119629601D01*
X158688049Y-119629601D01*
X158958447Y-119629601D01*
X160040041Y-119629601D01*
X160851236Y-119629601D01*
X161662431Y-119629601D01*
X161662431Y-119900000D01*
X161662431Y-120170398D01*
X161392032Y-120170398D01*
X161121634Y-120170398D01*
X161121634Y-120440796D01*
X161121634Y-120711195D01*
X160851236Y-120711195D01*
X160580837Y-120711195D01*
X160580837Y-120981593D01*
X160580837Y-121251991D01*
X160851236Y-121251991D01*
X161121634Y-121251991D01*
X161121634Y-120981593D01*
X161121634Y-120711195D01*
X161392032Y-120711195D01*
X161662431Y-120711195D01*
X161662431Y-120440796D01*
X161662431Y-120170398D01*
X161932829Y-120170398D01*
X162203228Y-120170398D01*
X162203228Y-119629601D01*
X162203228Y-119088804D01*
X161121634Y-119088804D01*
X160040041Y-119088804D01*
X160040041Y-119359203D01*
X160040041Y-119629601D01*
X158958447Y-119629601D01*
X158958447Y-119359203D01*
X158958447Y-119088804D01*
X159499244Y-119088804D01*
X160040041Y-119088804D01*
X160040041Y-118818406D01*
X160040041Y-118548008D01*
X160851236Y-118548008D01*
X161662431Y-118548008D01*
X161662431Y-118277609D01*
X161662431Y-118007211D01*
X161121634Y-118007211D01*
X160580837Y-118007211D01*
X160580837Y-117466414D01*
X160580837Y-116925618D01*
X160040041Y-116925618D01*
X159499244Y-116925618D01*
X159499244Y-116655219D01*
X159499244Y-116384821D01*
X158958447Y-116384821D01*
X158417651Y-116384821D01*
X158417651Y-116655219D01*
X158417651Y-116925618D01*
X157876854Y-116925618D01*
X157876854Y-116655219D01*
X157876854Y-116384821D01*
X157876854Y-115303228D01*
X158147252Y-115303228D01*
X158417651Y-115303228D01*
X158417651Y-115573626D01*
G37*
G36*
X171937568Y-115573626D02*
G01*
X171937568Y-115844024D01*
X172207967Y-115844024D01*
X172478365Y-115844024D01*
X172478365Y-115573626D01*
X172478365Y-115303228D01*
X172748763Y-115303228D01*
X173019162Y-115303228D01*
X173019162Y-115844024D01*
X173019162Y-116384821D01*
X173289560Y-116384821D01*
X173559958Y-116384821D01*
X173559958Y-116655219D01*
X173559958Y-116925618D01*
X173830357Y-116925618D01*
X174100755Y-116925618D01*
X174100755Y-116655219D01*
X174100755Y-116384821D01*
X174371153Y-116384821D01*
X174641552Y-116384821D01*
X174641552Y-116655219D01*
X174641552Y-116925618D01*
X174911950Y-116925618D01*
X175182348Y-116925618D01*
X175182348Y-116655219D01*
X175182348Y-116384821D01*
X175452747Y-116384821D01*
X175723145Y-116384821D01*
X175723145Y-116925618D01*
X175723145Y-117466414D01*
X175182348Y-117466414D01*
X174641552Y-117466414D01*
X174641552Y-117196016D01*
X174641552Y-116925618D01*
X174371153Y-116925618D01*
X174100755Y-116925618D01*
X174100755Y-117466414D01*
X174100755Y-118007211D01*
X174911950Y-118007211D01*
X175723145Y-118007211D01*
X175723145Y-118277609D01*
X175723145Y-118548008D01*
X175452747Y-118548008D01*
X175182348Y-118548008D01*
X175182348Y-119359203D01*
X175182348Y-120170398D01*
X175452747Y-120170398D01*
X175723145Y-120170398D01*
X175723145Y-120711195D01*
X175723145Y-121251991D01*
X175452747Y-121251991D01*
X175182348Y-121251991D01*
X175182348Y-121522390D01*
X175182348Y-121792788D01*
X175452747Y-121792788D01*
X175723145Y-121792788D01*
X175723145Y-122603983D01*
X175723145Y-123415178D01*
X175452747Y-123415178D01*
X175182348Y-123415178D01*
X175182348Y-123144780D01*
X175182348Y-122874381D01*
X174641552Y-122874381D01*
X174100755Y-122874381D01*
X174100755Y-123955975D01*
X174100755Y-125037568D01*
X174371153Y-125037568D01*
X174641552Y-125037568D01*
X174641552Y-124767170D01*
X174641552Y-124496771D01*
X175182348Y-124496771D01*
X175723145Y-124496771D01*
X175723145Y-124767170D01*
X175723145Y-125037568D01*
X175182348Y-125037568D01*
X174641552Y-125037568D01*
X174641552Y-125307967D01*
X174641552Y-125578365D01*
X174100755Y-125578365D01*
X173559958Y-125578365D01*
X173559958Y-125848763D01*
X173559958Y-126119162D01*
X173830357Y-126119162D01*
X174100755Y-126119162D01*
X174100755Y-126659958D01*
X174100755Y-127200755D01*
X174371153Y-127200755D01*
X174641552Y-127200755D01*
X174641552Y-126930357D01*
X174641552Y-126659958D01*
X174911950Y-126659958D01*
X175182348Y-126659958D01*
X175182348Y-126389560D01*
X175182348Y-126119162D01*
X174911950Y-126119162D01*
X174641552Y-126119162D01*
X174641552Y-125848763D01*
X174641552Y-125578365D01*
X175182348Y-125578365D01*
X175723145Y-125578365D01*
X175723145Y-126119162D01*
X175723145Y-126659958D01*
X175452747Y-126659958D01*
X175182348Y-126659958D01*
X175182348Y-126930357D01*
X175182348Y-127200755D01*
X174911950Y-127200755D01*
X174641552Y-127200755D01*
X174641552Y-127471153D01*
X174641552Y-127741552D01*
X174371153Y-127741552D01*
X174100755Y-127741552D01*
X174100755Y-127471153D01*
X174100755Y-127200755D01*
X173830357Y-127200755D01*
X173559958Y-127200755D01*
X173559958Y-127471153D01*
X173559958Y-127741552D01*
X173289560Y-127741552D01*
X173019162Y-127741552D01*
X173019162Y-127200755D01*
X173019162Y-126659958D01*
X172748763Y-126659958D01*
X172478365Y-126659958D01*
X172478365Y-126930357D01*
X172478365Y-127200755D01*
X172207967Y-127200755D01*
X171937568Y-127200755D01*
X171937568Y-127741552D01*
X171937568Y-128282348D01*
X171667170Y-128282348D01*
X171396771Y-128282348D01*
X171396771Y-128552747D01*
X171396771Y-128823145D01*
X170855975Y-128823145D01*
X170315178Y-128823145D01*
X170315178Y-128552747D01*
X170315178Y-128282348D01*
X170585576Y-128282348D01*
X170855975Y-128282348D01*
X170855975Y-128011950D01*
X170855975Y-127741552D01*
X170585576Y-127741552D01*
X170315178Y-127741552D01*
X170315178Y-127200755D01*
X171396771Y-127200755D01*
X171667170Y-127200755D01*
X171937568Y-127200755D01*
X171937568Y-126930357D01*
X171937568Y-126659958D01*
X171667170Y-126659958D01*
X171396771Y-126659958D01*
X171396771Y-126930357D01*
X171396771Y-127200755D01*
X170315178Y-127200755D01*
X170315178Y-126930357D01*
X170315178Y-126659958D01*
X170044780Y-126659958D01*
X169774381Y-126659958D01*
X169774381Y-126930357D01*
X169774381Y-127200755D01*
X168963186Y-127200755D01*
X168151991Y-127200755D01*
X168151991Y-126659958D01*
X168151991Y-126119162D01*
X168422390Y-126119162D01*
X168692788Y-126119162D01*
X168692788Y-126389560D01*
X168692788Y-126659958D01*
X169233585Y-126659958D01*
X169774381Y-126659958D01*
X169774381Y-126389560D01*
X169774381Y-126119162D01*
X170044780Y-126119162D01*
X170315178Y-126119162D01*
X170315178Y-126389560D01*
X170315178Y-126659958D01*
X170585576Y-126659958D01*
X170855975Y-126659958D01*
X170855975Y-126119162D01*
X171396771Y-126119162D01*
X172207967Y-126119162D01*
X173019162Y-126119162D01*
X173019162Y-125307967D01*
X173019162Y-124496771D01*
X172207967Y-124496771D01*
X171396771Y-124496771D01*
X171396771Y-125307967D01*
X171396771Y-126119162D01*
X170855975Y-126119162D01*
X170855975Y-125307967D01*
X170855975Y-123955975D01*
X172207967Y-123955975D01*
X173559958Y-123955975D01*
X173559958Y-123685576D01*
X173559958Y-123415178D01*
X172748763Y-123415178D01*
X171937568Y-123415178D01*
X171937568Y-123144780D01*
X171937568Y-122874381D01*
X172207967Y-122874381D01*
X172478365Y-122874381D01*
X172478365Y-122603983D01*
X172478365Y-122333585D01*
X172748763Y-122333585D01*
X173019162Y-122333585D01*
X173019162Y-122603983D01*
X173019162Y-122874381D01*
X173289560Y-122874381D01*
X173559958Y-122874381D01*
X173559958Y-122603983D01*
X173559958Y-122333585D01*
X174100755Y-122333585D01*
X174641552Y-122333585D01*
X174641552Y-121792788D01*
X174641552Y-121251991D01*
X174371153Y-121251991D01*
X174100755Y-121251991D01*
X174100755Y-120981593D01*
X174100755Y-120711195D01*
X174371153Y-120711195D01*
X174641552Y-120711195D01*
X174641552Y-120440796D01*
X174641552Y-120170398D01*
X174371153Y-120170398D01*
X174100755Y-120170398D01*
X174100755Y-120440796D01*
X174100755Y-120711195D01*
X173830357Y-120711195D01*
X173559958Y-120711195D01*
X173559958Y-120440796D01*
X173559958Y-120170398D01*
X173289560Y-120170398D01*
X173019162Y-120170398D01*
X173019162Y-120440796D01*
X173019162Y-120711195D01*
X172748763Y-120711195D01*
X172478365Y-120711195D01*
X172478365Y-120440796D01*
X172478365Y-120170398D01*
X172748763Y-120170398D01*
X173019162Y-120170398D01*
X173019162Y-119629601D01*
X173559958Y-119629601D01*
X173559958Y-120170398D01*
X173830357Y-120170398D01*
X174100755Y-120170398D01*
X174100755Y-119900000D01*
X174100755Y-119629601D01*
X174371153Y-119629601D01*
X174641552Y-119629601D01*
X174641552Y-119088804D01*
X174641552Y-118548008D01*
X174371153Y-118548008D01*
X174100755Y-118548008D01*
X174100755Y-118818406D01*
X174100755Y-119088804D01*
X173830357Y-119088804D01*
X173559958Y-119088804D01*
X173559958Y-119629601D01*
X173019162Y-119629601D01*
X173019162Y-119088804D01*
X172748763Y-119088804D01*
X172478365Y-119088804D01*
X172478365Y-119629601D01*
X172478365Y-120170398D01*
X172207967Y-120170398D01*
X171937568Y-120170398D01*
X171937568Y-119629601D01*
X171937568Y-119088804D01*
X171667170Y-119088804D01*
X171396771Y-119088804D01*
X171396771Y-118818406D01*
X171396771Y-118548008D01*
X172207967Y-118548008D01*
X173019162Y-118548008D01*
X173019162Y-118277609D01*
X173019162Y-118007211D01*
X171937568Y-118007211D01*
X170855975Y-118007211D01*
X170855975Y-118818406D01*
X170855975Y-119629601D01*
X171126373Y-119629601D01*
X171396771Y-119629601D01*
X171396771Y-119900000D01*
X171396771Y-120170398D01*
X171126373Y-120170398D01*
X170855975Y-120170398D01*
X170855975Y-120440796D01*
X170855975Y-120711195D01*
X170585576Y-120711195D01*
X170315178Y-120711195D01*
X170315178Y-120981593D01*
X170315178Y-121251991D01*
X170044780Y-121251991D01*
X169774381Y-121251991D01*
X169774381Y-121522390D01*
X169774381Y-121792788D01*
X170315178Y-121792788D01*
X170855975Y-121792788D01*
X170855975Y-121522390D01*
X170855975Y-121251991D01*
X171126373Y-121251991D01*
X171396771Y-121251991D01*
X171396771Y-121522390D01*
X171396771Y-121792788D01*
X171126373Y-121792788D01*
X170855975Y-121792788D01*
X170855975Y-122063186D01*
X170855975Y-122333585D01*
X171126373Y-122333585D01*
X171396771Y-122333585D01*
X171396771Y-122063186D01*
X171396771Y-121792788D01*
X171667170Y-121792788D01*
X171937568Y-121792788D01*
X171937568Y-122063186D01*
X171937568Y-122333585D01*
X171667170Y-122333585D01*
X171396771Y-122333585D01*
X171396771Y-122874381D01*
X171396771Y-123415178D01*
X171126373Y-123415178D01*
X170855975Y-123415178D01*
X170855975Y-123144780D01*
X170855975Y-122874381D01*
X170585576Y-122874381D01*
X170315178Y-122874381D01*
X170315178Y-123144780D01*
X170315178Y-123415178D01*
X170044780Y-123415178D01*
X169774381Y-123415178D01*
X169774381Y-123955975D01*
X169774381Y-124496771D01*
X169503983Y-124496771D01*
X169233585Y-124496771D01*
X169233585Y-124767170D01*
X169233585Y-125037568D01*
X168422390Y-125037568D01*
X167611195Y-125037568D01*
X167611195Y-124767170D01*
X167611195Y-124496771D01*
X167340796Y-124496771D01*
X167070398Y-124496771D01*
X167070398Y-124226373D01*
X167070398Y-123955975D01*
X167340796Y-123955975D01*
X167611195Y-123955975D01*
X167611195Y-124226373D01*
X167611195Y-124496771D01*
X167881593Y-124496771D01*
X168151991Y-124496771D01*
X168151991Y-124226373D01*
X168151991Y-123955975D01*
X168692788Y-123955975D01*
X169233585Y-123955975D01*
X169233585Y-123685576D01*
X169233585Y-123415178D01*
X169503983Y-123415178D01*
X169774381Y-123415178D01*
X169774381Y-123144780D01*
X169774381Y-122874381D01*
X169503983Y-122874381D01*
X169233585Y-122874381D01*
X169233585Y-123144780D01*
X169233585Y-123415178D01*
X168963186Y-123415178D01*
X168692788Y-123415178D01*
X168692788Y-123144780D01*
X168692788Y-122874381D01*
X168151991Y-122874381D01*
X167611195Y-122874381D01*
X167611195Y-122603983D01*
X167611195Y-122333585D01*
X167340796Y-122333585D01*
X167070398Y-122333585D01*
X167070398Y-122603983D01*
X167070398Y-122874381D01*
X166800000Y-122874381D01*
X166529601Y-122874381D01*
X166529601Y-123144780D01*
X166529601Y-123415178D01*
X166259203Y-123415178D01*
X165988804Y-123415178D01*
X165988804Y-122874381D01*
X165988804Y-122333585D01*
X166259203Y-122333585D01*
X166529601Y-122333585D01*
X166529601Y-122063186D01*
X166529601Y-121792788D01*
X166800000Y-121792788D01*
X167070398Y-121792788D01*
X167070398Y-121522390D01*
X167070398Y-121251991D01*
X167340796Y-121251991D01*
X167611195Y-121251991D01*
X167611195Y-120981593D01*
X167611195Y-120711195D01*
X167881593Y-120711195D01*
X168151991Y-120711195D01*
X168151991Y-121522390D01*
X168151991Y-122333585D01*
X168963186Y-122333585D01*
X169774381Y-122333585D01*
X169774381Y-122063186D01*
X169774381Y-121792788D01*
X169233585Y-121792788D01*
X168692788Y-121792788D01*
X168692788Y-121522390D01*
X168692788Y-121251991D01*
X169233585Y-121251991D01*
X169774381Y-121251991D01*
X169774381Y-120981593D01*
X169774381Y-120711195D01*
X169233585Y-120711195D01*
X168692788Y-120711195D01*
X168692788Y-120440796D01*
X168692788Y-120170398D01*
X167881593Y-120170398D01*
X167070398Y-120170398D01*
X167070398Y-119359203D01*
X167070398Y-118548008D01*
X167340796Y-118548008D01*
X167611195Y-118548008D01*
X167611195Y-118818406D01*
X167611195Y-119088804D01*
X168151991Y-119088804D01*
X168692788Y-119088804D01*
X168692788Y-119359203D01*
X168692788Y-119629601D01*
X168963186Y-119629601D01*
X169233585Y-119629601D01*
X169233585Y-119359203D01*
X169233585Y-119088804D01*
X169774381Y-119088804D01*
X170315178Y-119088804D01*
X170315178Y-118818406D01*
X170315178Y-118548008D01*
X169774381Y-118548008D01*
X169233585Y-118548008D01*
X169233585Y-118818406D01*
X169233585Y-119088804D01*
X168963186Y-119088804D01*
X168692788Y-119088804D01*
X168692788Y-118818406D01*
X168692788Y-118548008D01*
X168963186Y-118548008D01*
X169233585Y-118548008D01*
X169233585Y-118277609D01*
X169233585Y-118007211D01*
X169774381Y-118007211D01*
X170315178Y-118007211D01*
X170315178Y-117466414D01*
X171396771Y-117466414D01*
X171667170Y-117466414D01*
X171937568Y-117466414D01*
X172478365Y-117466414D01*
X172748763Y-117466414D01*
X173019162Y-117466414D01*
X173019162Y-117196016D01*
X173019162Y-116925618D01*
X172748763Y-116925618D01*
X172478365Y-116925618D01*
X172478365Y-117196016D01*
X172478365Y-117466414D01*
X171937568Y-117466414D01*
X171937568Y-117196016D01*
X171937568Y-116925618D01*
X171667170Y-116925618D01*
X171396771Y-116925618D01*
X171396771Y-117196016D01*
X171396771Y-117466414D01*
X170315178Y-117466414D01*
X170315178Y-117196016D01*
X170315178Y-116925618D01*
X169233585Y-116925618D01*
X168151991Y-116925618D01*
X168151991Y-116655219D01*
X168151991Y-116384821D01*
X168422390Y-116384821D01*
X168692788Y-116384821D01*
X168692788Y-116114423D01*
X168692788Y-115844024D01*
X168963186Y-115844024D01*
X169233585Y-115844024D01*
X169233585Y-116114423D01*
X169233585Y-116384821D01*
X169503983Y-116384821D01*
X169774381Y-116384821D01*
X169774381Y-116114423D01*
X169774381Y-115844024D01*
X170044780Y-115844024D01*
X170315178Y-115844024D01*
X170315178Y-116384821D01*
X170315178Y-116925618D01*
X170585576Y-116925618D01*
X170855975Y-116925618D01*
X170855975Y-116384821D01*
X170855975Y-115844024D01*
X171126373Y-115844024D01*
X171396771Y-115844024D01*
X171396771Y-115573626D01*
X171396771Y-115303228D01*
X171667170Y-115303228D01*
X171937568Y-115303228D01*
X171937568Y-115573626D01*
G37*
D12*
%TO.C,J1*%
X119900000Y-70050000D02*
X119900000Y-78300000D01*
X129900000Y-70050000D02*
X119900000Y-70050000D01*
X129900000Y-70050000D02*
X129900000Y-78300000D01*
X129900000Y-78300000D02*
X119900000Y-78300000D01*
D13*
X130750000Y-74300000D02*
G75*
G02*
X130550000Y-74300000I-100000J0D01*
G01*
X130550000Y-74300000D02*
G75*
G02*
X130750000Y-74300000I100000J0D01*
G01*
D12*
%TO.C,J3*%
X110150000Y-84700000D02*
X110150000Y-99700000D01*
X110150000Y-84700000D02*
X118400000Y-84700000D01*
X110150000Y-99700000D02*
X118400000Y-99700000D01*
X118400000Y-84700000D02*
X118400000Y-99700000D01*
D13*
X114500000Y-83950000D02*
G75*
G02*
X114300000Y-83950000I-100000J0D01*
G01*
X114300000Y-83950000D02*
G75*
G02*
X114500000Y-83950000I100000J0D01*
G01*
D15*
%TO.C,F2*%
X132568300Y-97874000D02*
X132568300Y-101365174D01*
X132568300Y-104034826D02*
X132568300Y-107526000D01*
X132568300Y-107526000D02*
X157231700Y-107526000D01*
X157231700Y-97874000D02*
X132568300Y-97874000D01*
X157231700Y-101851119D02*
X157231700Y-97874000D01*
X157231700Y-107526000D02*
X157231700Y-103548881D01*
D12*
%TO.C,J5*%
X181700000Y-117400000D02*
X181700000Y-92400000D01*
X189950000Y-92400000D02*
X181700000Y-92400000D01*
X189950000Y-117400000D02*
X181700000Y-117400000D01*
X189950000Y-117400000D02*
X189950000Y-92400000D01*
D13*
X185800000Y-118150000D02*
G75*
G02*
X185600000Y-118150000I-100000J0D01*
G01*
X185600000Y-118150000D02*
G75*
G02*
X185800000Y-118150000I100000J0D01*
G01*
D15*
%TO.C,F4*%
X132568300Y-119874000D02*
X132568300Y-123365174D01*
X132568300Y-126034826D02*
X132568300Y-129526000D01*
X132568300Y-129526000D02*
X157231700Y-129526000D01*
X157231700Y-119874000D02*
X132568300Y-119874000D01*
X157231700Y-123851119D02*
X157231700Y-119874000D01*
X157231700Y-129526000D02*
X157231700Y-125548881D01*
%TO.C,F3*%
X132568300Y-108774000D02*
X132568300Y-112265174D01*
X132568300Y-114934826D02*
X132568300Y-118426000D01*
X132568300Y-118426000D02*
X157231700Y-118426000D01*
X157231700Y-108774000D02*
X132568300Y-108774000D01*
X157231700Y-112751119D02*
X157231700Y-108774000D01*
X157231700Y-118426000D02*
X157231700Y-114448881D01*
D16*
%TO.C,C14*%
X139488748Y-70915000D02*
X140011252Y-70915000D01*
X139488748Y-72385000D02*
X140011252Y-72385000D01*
%TO.C,C13*%
X135411252Y-70915000D02*
X134888748Y-70915000D01*
X135411252Y-72385000D02*
X134888748Y-72385000D01*
D15*
%TO.C,F1*%
X132568300Y-86874000D02*
X132568300Y-90365174D01*
X132568300Y-93034826D02*
X132568300Y-96526000D01*
X132568300Y-96526000D02*
X157231700Y-96526000D01*
X157231700Y-86874000D02*
X132568300Y-86874000D01*
X157231700Y-90851119D02*
X157231700Y-86874000D01*
X157231700Y-96526000D02*
X157231700Y-92548881D01*
D16*
%TO.C,TP1*%
X189150000Y-86100000D02*
G75*
G02*
X182650000Y-86100000I-3250000J0D01*
G01*
X182650000Y-86100000D02*
G75*
G02*
X189150000Y-86100000I3250000J0D01*
G01*
D12*
%TO.C,J4*%
X110150000Y-101700000D02*
X110150000Y-116700000D01*
X110150000Y-101700000D02*
X118400000Y-101700000D01*
X110150000Y-116700000D02*
X118400000Y-116700000D01*
X118400000Y-101700000D02*
X118400000Y-116700000D01*
D13*
X114500000Y-100950000D02*
G75*
G02*
X114300000Y-100950000I-100000J0D01*
G01*
X114300000Y-100950000D02*
G75*
G02*
X114500000Y-100950000I100000J0D01*
G01*
D16*
%TO.C,U5*%
X133580000Y-77425000D02*
X133580000Y-72784000D01*
X136849000Y-77425000D02*
X136849000Y-75915000D01*
X140550000Y-77425000D02*
X140550000Y-75915000D01*
X143820000Y-72784000D02*
X133580000Y-72784000D01*
X143820000Y-75915000D02*
X133580000Y-75915000D01*
X143820000Y-77425000D02*
X133580000Y-77425000D01*
X143820000Y-77425000D02*
X143820000Y-72784000D01*
%TD*%
%LPC*%
D17*
%TO.C,J2*%
X175000000Y-74300000D03*
D18*
X170000000Y-74300000D03*
X165000000Y-74300000D03*
X160000000Y-74300000D03*
X155000000Y-74300000D03*
X150000000Y-74300000D03*
%TD*%
D19*
%TO.C,H4*%
X115000000Y-125000000D03*
%TD*%
D17*
%TO.C,J1*%
X127400000Y-74300000D03*
D18*
X122400000Y-74300000D03*
%TD*%
D20*
%TO.C,J3*%
X114400000Y-87200000D03*
D18*
X114400000Y-92200000D03*
X114400000Y-97200000D03*
%TD*%
D21*
%TO.C,F2*%
X133600000Y-102700000D03*
D22*
X156200000Y-102700000D03*
%TD*%
D23*
%TO.C,J5*%
X185700000Y-114900000D03*
D18*
X185700000Y-109900000D03*
X185700000Y-104900000D03*
X185700000Y-99900000D03*
X185700000Y-94900000D03*
%TD*%
D21*
%TO.C,F4*%
X133600000Y-124700000D03*
D22*
X156200000Y-124700000D03*
%TD*%
D19*
%TO.C,H3*%
X115000000Y-75000000D03*
%TD*%
D21*
%TO.C,F3*%
X133600000Y-113600000D03*
D22*
X156200000Y-113600000D03*
%TD*%
D24*
%TO.C,C14*%
X138712500Y-71650000D03*
X140787500Y-71650000D03*
%TD*%
D25*
%TO.C,C13*%
X136187500Y-71650000D03*
X134112500Y-71650000D03*
%TD*%
D21*
%TO.C,F1*%
X133600000Y-91700000D03*
D22*
X156200000Y-91700000D03*
%TD*%
D19*
%TO.C,H2*%
X185000000Y-125000000D03*
%TD*%
D26*
%TO.C,TP1*%
X185900000Y-86100000D03*
%TD*%
D20*
%TO.C,J4*%
X114400000Y-104200000D03*
D18*
X114400000Y-109200000D03*
X114400000Y-114200000D03*
%TD*%
D27*
%TO.C,U5*%
X141240000Y-74155000D03*
D28*
X138700000Y-74155000D03*
X136160000Y-74155000D03*
%TD*%
D19*
%TO.C,H1*%
X185000000Y-75000000D03*
%TD*%
D29*
%TO.C,TP8*%
X135200000Y-98276750D03*
%TD*%
%TO.C,TP15*%
X154100000Y-113600000D03*
%TD*%
%TO.C,TP7*%
X144000000Y-101300000D03*
%TD*%
%TO.C,TP16*%
X156300000Y-106400000D03*
%TD*%
%TO.C,TP13*%
X135200000Y-109300000D03*
%TD*%
%TO.C,TP17*%
X143900000Y-123600000D03*
%TD*%
%TO.C,TP3*%
X135300000Y-87300000D03*
%TD*%
%TO.C,TP20*%
X153900000Y-124700000D03*
%TD*%
%TO.C,TP10*%
X153900000Y-102700000D03*
%TD*%
%TO.C,TP9*%
X168200000Y-96400000D03*
%TD*%
%TO.C,TP11*%
X156300000Y-95300000D03*
%TD*%
%TO.C,TP4*%
X167900000Y-85400000D03*
%TD*%
%TO.C,TP5*%
X153900000Y-91700000D03*
%TD*%
%TO.C,TP2*%
X144000000Y-90800000D03*
%TD*%
%TO.C,TP12*%
X144100000Y-112400000D03*
%TD*%
%TO.C,TP18*%
X135200000Y-120500000D03*
%TD*%
%TO.C,TP6*%
X156200000Y-84400000D03*
%TD*%
%TO.C,TP19*%
X168100000Y-118500000D03*
%TD*%
%TO.C,TP21*%
X156200000Y-117400000D03*
%TD*%
%TO.C,TP14*%
X168000000Y-107500000D03*
%TD*%
%LPD*%
M02*
